<svg xmlns="http://www.w3.org/2000/svg" width="106.026" height="51.087" viewBox="0 0 743 358">
  <defs>
    <style>
      .cls-1, .cls-2 {
        fill-rule: evenodd;
      }

      .cls-2 {
        fill: #737171;
      }
    </style>
  </defs>
  <g id="Artboard_1" data-name="Artboard 1">
    <path id="Color_Fill_1" data-name="Color Fill 1" class="cls-1" d="M783.994,510.61c3.447,0.6,8.311.414,12.411,0.414h31.853v0.414l1.655,0.413c0.6,3.192-.306,4.413-1.241,7.033l-0.414,2.9h-0.414v1.654h-0.413v1.241h-0.414l-0.414,2.9H826.19l-0.414,2.9h-0.414q-0.207,1.448-.413,2.9h-0.414v1.655c-1.251,3.488-2.833,6.655-1.241,10.755,2.027,1.045,4.716.828,7.86,0.828h14.892q-3.928,12.615-7.86,25.234H813.779q-0.62,1.861-1.241,3.723l-0.414,2.9h-0.413v1.655H811.3v1.241h-0.414q-0.207,1.448-.413,2.9h-0.414q-0.414,2.274-.827,4.55h-0.414l-0.414,2.9h-0.413v1.655h-0.414V595H807.16v1.241h-0.413V597.9c-2.683,7.449-4.469,16.059-7.033,23.58v1.655c-0.643,1.82-2.629,6.721-1.655,9.928h0.414v1.655h0.414q0.206,0.826.413,1.655l0.828,0.413v0.828l1.654,1.241v0.413h19.857l-7.446,24.408H769.515v-0.414h-2.068v-0.414h-2.069v-0.413h-1.654v-0.414h-1.655V661.6h-1.655v-0.413h-1.655v-0.414l-6.205-1.655q-0.207-.414-0.413-0.827h-0.828v-0.414l-1.241-.827v-0.828l-0.827-.413v-0.828h-0.414l-0.414-1.654H748l-0.414-3.31h-0.414v-4.964a40.345,40.345,0,0,1,2.9-14.479v-1.655h0.414v-1.241H750.9v-1.241h0.414v-1.654c2.809-7.77,5.058-16.612,7.86-24.408v-1.654h0.414v-1.241H760v-1.242h0.414v-1.654h0.414v-1.241h0.414v-1.241h0.413v-1.241h0.414q0.414-2.069.827-4.137h0.414q0.414-2.068.827-4.137h0.414v-1.655h0.414V579.7h0.413v-1.241h0.414V576.8h0.414v-1.241h0.413v-3.723c-2.026-1.044-4.716-.827-7.86-0.827H744.694v-0.414c1.2-1.289,1.328-4.346,2.069-6.205,1.526-3.828,3.021-8.154,4.55-12v-1.241h0.414V549.91h0.414v-1.241h0.413l0.414-2.482h0.414c0.846-.75,3.432-0.413,4.964-0.414h13.238V545.36c4.053-1.176,3.579-6.063,4.964-9.929h0.413V534.19h0.414l0.414-2.9H778.2l0.414-2.895h0.414q0.414-2.276.827-4.551h0.414v-1.655h0.414v-1.241H781.1V519.3ZM295.849,516.4l100.525,0.414v0.413H430.71v0.414l3.723,0.827v0.414l2.482,0.827v0.414h0.827v0.414h0.828v0.413l2.482,0.828q0.207,0.412.413,0.827h0.828l0.827,1.241h0.827l2.069,2.482,1.655,1.241V528.4l1.241,0.827q0.207,0.828.413,1.655l0.828,0.413v1.241h0.413v0.828h0.414c0.54,1.27,1.451,6.224.827,8.273h-0.413v1.655H450.98v1.655h-0.414V546.6h-0.413v2.068h-0.414v1.655h-0.414v1.655h-0.413v1.654H448.5v1.655h-0.414q-0.412,2.688-.827,5.378h-0.414v1.655H446.43v1.654h-0.414v1.655H445.6v1.655h-0.413l-0.828,5.378h-0.414v1.654c-0.658,1.949-1.411,4.67-2.068,6.619v1.655h-0.414q-0.619,3.516-1.241,7.033h-0.413l-0.828,3.723H438.57l-0.828,2.482h-0.413l-0.414,1.655-0.827.413-0.414,1.655-0.828.414v0.827l-1.241.827v0.828l-2.482,2.068q-1.24,1.448-2.482,2.9h-0.827q-0.414.621-.827,1.241h-0.828l-0.414.827h-0.827l-0.414.828-1.654.413v0.414h-0.828v0.414H421.2v0.413l-2.482.828V613.2h-1.241v0.414h-1.241v0.414H414.99v0.413h-1.241v0.414h-1.655v0.414h-2.068v0.414h-2.9V616.1l-32.681.414c-4.438.74-10.6,0.413-15.72,0.414l-15.306.413-14.479,46.333H279.3l27.3-98.043,1.241-.414V564.8l2.069-.414v-0.414h0.827v-0.413h1.241v-0.414l1.655-.414v-0.413h1.241v-0.414l1.654-.414V561.08h1.241v-0.414l1.655-.414v-0.414h1.241v-0.413l1.655-.414V558.6h1.241v-0.413l1.655-.414v-0.414h1.241v-0.413l1.655-.414v-0.414h1.241V555.7l1.654-.414v-0.414h1.241v-0.413l1.655-.414v-0.414h1.241V553.22l1.655-.414v-0.414h1.241v-0.413l1.655-.414v-0.414h1.241v-0.414l1.654-.413V549.91h1.241V549.5l1.655-.413v-0.414h1.241v-0.414l1.655-.413v-0.414h1.241v-0.414l1.655-.413v-0.414h1.241v-0.414l3.723-1.241v-0.413l-66.6-.414Zm68.672,27.717q-6.62,22.129-13.238,44.264h22.339c4.064,0,7.381.957,9.928-.828l1.655-2.068,0.827-.414v-0.827l0.827-.414v-0.827l0.828-.414q0.412-1.24.827-2.482h0.414q0.414-1.24.827-2.482h0.414v-1.241h0.414v-0.828H391q2.483-8.686,4.964-17.374v-2.9c0.009-2.876-.1-5.739-1.241-7.446l-1.654-1.241-0.828-1.241c-2.692-1.886-11.841-2.445-16.133-1.241H364.521ZM956.086,664.5H878.727l-19.029-.414v-0.413h-3.31v-0.414h-1.654v-0.414h-1.241v-0.413h-0.828v-0.414h-1.241V661.6l-2.482-.413v-0.414h-0.827v-0.414h-0.828q-0.206-.414-0.413-0.827h-0.828q-0.413-.621-0.827-1.241h-0.827v-0.414l-1.241-.827v-0.828l-1.241-.827-0.414-1.655-0.828-.413V652.09h-0.413v-0.828h-0.414v-1.241h-0.414V648.78h-0.413v-1.655c-0.46-1.464-1.5-7.668-.828-9.928H838.6v-2.068h0.414q0.207-1.242.413-2.483c1.548-3.9,3-8.507,4.551-12.41V619h0.414v-1.241h0.413v-1.241h0.414v-1.241h0.414v-1.241a61.009,61.009,0,0,0,3.309-9.515l51.3-20.27v0.827h-0.414l-0.414,2.9H899v1.655h-0.414l-0.414,2.895h-0.413v1.241h-0.414l-0.414,2.9h-0.413l-0.414,3.31c-1.949,5.437-3.432,11.936-5.378,17.374l-0.414,3.31c-0.984,2.776-2.833,6.7-1.654,10.342v1.654h0.413v1.242h0.414v0.827l0.827,0.414v0.827h0.414q0.621,0.826,1.241,1.655h0.827v0.413a5.009,5.009,0,0,1,1.241.828c5.949,0.124,21.16,1.173,22.339-2.9,1.262-1.216.24-1.571,0.828-3.31h0.413l0.414-2.895h0.414V628.51h0.413v-1.241h0.414v-1.655h0.414v-1.241H920.1v-1.655c3.589-9.916,5.932-21.125,9.515-31.026v-1.655h0.414V588.8h0.413v-1.655h0.414v-2.068c1.122-3.73,1.191-11.322-2.482-12.41-1.026-1.468-3.3-1.24-5.792-1.241H909.34c-7.672-.346-16.9-0.414-25.235-0.414H872.936c-4.323-1.2-12.2-.424-17.375-0.414v-0.413c1.2-1.29,1.328-4.347,2.068-6.206,1.556-3.9,3-8.508,4.551-12.41v-1.241h0.414v-1.241h0.413l0.414-2.482h0.414c0.746-.665,2.749-0.413,4.136-0.414h10.343c0.7-.617,2.4-0.412,3.723-0.414h9.1l35.576-.413,19.443-.414c3.073,0,7.119-.27,9.515.414l5.792,0.413v0.414h1.654V546.6l3.723,0.827v0.414l2.483,0.827v0.414h0.827V549.5l1.241,0.414,0.414,0.827h0.827q0.621,0.828,1.241,1.655H974.7l0.414,0.828h0.414v0.827l1.655,1.241v0.827l1.241,0.828,2.9,6.619v2.068h0.414V567.7h0.414c0.942,3.316-.97,7.179-1.655,9.1q-0.414,2.276-.827,4.551h-0.414v1.655h-0.414v1.241h-0.413l-0.414,2.895H977.6q-0.207,1.449-.413,2.9H976.77l-0.828,4.551h-0.413v1.654h-0.414v1.242H974.7v1.654c-1.967,5.452-3.434,11.934-5.377,17.375v1.655H968.91v1.654H968.5v1.241h-0.413v1.655c-1.96,5.434-3.43,11.937-5.378,17.375v1.654h-0.414v1.242h-0.414v1.654h-0.413V646.3H961.05v1.241h-0.414q-0.207,1.447-.413,2.9h-0.414l-0.414,2.9h-0.413l-0.414,2.895h-0.414l-0.414,3.31h-0.413v1.241Q956.706,662.639,956.086,664.5Zm-245.314-.827H664.44q1.24-4.758,2.482-9.515h0.414q0.207-1.655.413-3.31c1.821-5.038,3.163-11.109,4.965-16.133q0.205-1.655.413-3.31h0.414v-1.241h0.414q0.207-1.447.413-2.895h0.414v-1.655H675.2v-1.655c3.212-8.943,5.091-19.176,8.273-28.13l0.414-3.31c1.862-5.242,6.3-16.961,0-20.684-1.5-1.416-5.527-.7-8.274-0.827-3.294-.149-9.158-1.284-12.41,0v0.414h-0.827v0.413h-0.828q-0.62.828-1.241,1.655l-1.241.827q-12.822,44.467-25.648,88.942h-45.5l20.27-71.981,9.1-4.137v-0.413l1.655-.414V585.9h1.241v-0.413l1.655-.414v-0.414h0.827v-0.413h0.827v-0.414h0.828v-0.414l2.482-.827v-0.414h1.241v-0.413l1.655-.414v-0.414h0.827v-0.413h0.827v-0.414l2.482-.827v-0.414h1.242v-0.414l1.654-.414v-0.413h0.828v-0.414h0.827V576.8h0.827v-0.413l2.482-.828v-0.413h1.241v-0.414h0.828v-0.414h0.827V573.9h0.828V573.49h0.827v-0.414h0.827v-0.413l2.482-.828v-0.413h1.241v-0.414l2.483-.827v-0.414H612.73l6.2-23.58,80.254-.827c8.372,0,16.1.128,22.339,2.068l3.723,0.414v0.413l2.482,0.414v0.414l1.655,0.413,0.414,0.828h0.827l0.414,0.827h0.827l0.414,0.828,1.655,1.241v0.827l0.827,0.414,0.414,1.241h0.413q1.035,3.309,2.069,6.619V567.7a39.392,39.392,0,0,1-2.9,14.479v1.655h-0.414v1.241h-0.413v1.241h-0.414v1.655c-3.35,9.27-5.766,19.711-9.1,28.958v1.654H724.01v1.241H723.6v1.655h-0.413v1.241h-0.414v1.241h-0.414q-0.412,2.068-.827,4.137h-0.414v1.655H720.7v1.241h-0.414v1.241h-0.414q-0.413,2.069-.827,4.137h-0.414q-0.207,1.448-.413,2.895h-0.414q-0.414,2.068-.827,4.137h-0.414v1.655H716.15V646.3h-0.413v1.241h-0.414v1.655h-0.414v1.241H714.5v1.241h-0.413l-0.414,2.9h-0.414q-0.413,2.067-.827,4.136h-0.414v1.655A23.287,23.287,0,0,0,710.772,663.673ZM575.912,617.34H499.8c-2.284,4.136-6.149,8.956-3.724,15.306v1.242h0.414l0.414,1.654,1.654,1.241v0.828l1.242,0.413q0.412,0.621.827,1.241h70.326l-7.033,24.408H486.143c-17.335,0-29.213,1.087-36.4-9.515l-0.827-.414v-0.827l-0.828-.414v-0.827h-0.413v-1.241h-0.414v-0.828h-0.414v-1.241H446.43v-1.654h-0.414v-2.9H445.6v-5.378h0.414v-2.482h0.414v-1.241h0.413l0.828-4.137h0.413v-1.241H448.5V628.1h0.414v-1.241h0.413l0.414-2.9h0.414v-1.241h0.413v-1.241h0.414v-1.241h0.414q0.62-2.688,1.241-5.378h0.413l1.242-5.378H454.7v-1.654h0.414v-1.241h0.414v-1.242h0.413V604.1h0.414v-1.241h0.414q0.62-2.688,1.241-5.377h0.413v-1.655h0.414q0.621-2.275,1.241-4.551c2.152-.9,4.241-2.255,6.2-3.309h0.828v-0.414h0.827v-0.414h0.827v-0.413H469.6v-0.414h0.827V585.9h1.241v-0.413h0.828v-0.414l1.654-.414v-0.413l1.655-.414v-0.414h0.827v-0.413h0.828v-0.414h0.827v-0.414h0.827v-0.413h0.828V581.35h0.827v-0.414l1.655-.413v-0.414l1.655-.414v-0.413H484.9v-0.414h0.827v-0.414h0.828V578.04h0.827v-0.413h0.827v-0.414l2.483-.827v-0.414l2.482-.827v-0.414h1.241v-0.414h0.827V573.9h0.827V573.49H496.9v-0.414h0.827v-0.413h0.827c1.807-.966,3.543-2.367,5.792-2.9v-0.414H464.632c1.094-12.934,11.439-19.5,22.338-22.752h51.711c11.871,0,28.691-1.381,37.231,2.068h1.241v0.414h0.827V549.5h0.828q0.207,0.414.413,0.828l1.655,0.413,1.241,1.655h0.828v0.414l1.241,0.827v0.828l1.241,0.827v0.827l0.827,0.414v0.827h0.414q0.207,0.828.413,1.655H587.5q0.414,2.276.827,4.551c0.473,1.521,1.031,6.783.414,8.687h-0.414v1.241h-0.413L587.5,576.8h-0.414v1.241h-0.413l-0.414,2.9H585.84q-0.206,1.447-.413,2.9h-0.414q-0.414,2.276-.827,4.551h-0.414l-0.414,2.895h-0.413v1.655h-0.414v1.655h-0.414v1.241H581.7v1.655H581.29v1.241h-0.414q-0.207,1.448-.413,2.895h-0.414l-0.828,4.551h-0.413v1.655A75.032,75.032,0,0,0,575.912,617.34Zm-61.639-47.573-2.068,2.482h-0.414v0.827l-0.827.414-0.414,1.655h-0.413l-0.414,1.654h-0.414v1.241H508.9v1.242h-0.414v1.241h-0.414v1.654h-0.414v1.655h-0.413v1.655c-0.543,1.625-2.633,5.365-1.241,7.446,1.119,1.673,4.669,1.241,7.446,1.241,6.965,0,14.8.179,21.1-.414l1.241-1.654H536.2q0.206-.828.413-1.655h0.414l0.414-5.792h0.413v-2.895h0.414a24.739,24.739,0,0,0,0-7.447h-0.414q-0.207-.827-0.413-1.654l-0.828-.414q-0.207-.621-0.413-1.241c-2.123-1.64-8.461-.87-12-0.827C523.247,569.321,516.3,569.731,514.273,569.767Z" transform="translate(-262 -493)"/>
    <path id="Color_Fill_2" data-name="Color Fill 2" class="cls-2" d="M443.171,766.073h1.9l3.325-3.8,0.95-.475v-0.95l2.85-2.375v-0.95l3.325-2.85v-0.95l2.849-2.375V750.4l1.425-.95,1.425-1.9H461.7V746.6l3.325-2.85V742.8l1.425-.95,0.95-1.425h0.475v-0.95l3.325-2.85v-0.95l3.325-2.85v-0.95l2.85-2.375v-0.95l3.325-2.85v-0.95l2.849-2.375v-0.949l1.425-.95,1.425-1.9h0.475v-0.95c0.355-.479,1.435-0.857,1.9-1.425a64.807,64.807,0,0,1,10.925.475,9.105,9.105,0,0,1,.475,3.325l-2.85,2.374v0.95l-3.325,2.85v0.95l-2.85,2.375v0.95l-2.85,2.375v0.95l-2.85,2.375v0.95l-3.324,2.85v0.95h-0.475l-0.95,1.425-1.425.95v0.95l-1.425.95L476.9,746.6H476.42v0.949l-2.85,2.375c-5.595,7.726-12.456,14.111-18.049,21.85l-2.85,2.374v0.95l-3.325,2.85v0.95l-2.85,2.375q-0.949,4.749-1.9,9.5c-2.717,8.025-4.066,17.585-6.65,25.649V818.8h-0.475v1.9c-0.549,1.62-1.654,5.858-2.85,6.649-1.842,1.219-7.222.521-9.974,0.475-0.863-1.482-1.416-1.608-1.425-4.274,0.977-1.059.417-2.288,0.95-3.8h0.475v-1.425h0.475v-1.9H425.6v-1.9h0.475q0.237-1.662.475-3.325h0.475q0.237-1.9.475-3.8h0.475q0.237-1.662.475-3.325h0.475v-1.9H429.4v-1.9h0.475v-1.425h0.475v-1.9h0.475q0.474-2.613.95-5.225h0.474v-1.9h0.475q0.238-3.087.475-6.175h0.475v-3.8H433.2v-3.325h-0.475q-0.237-1.425-.475-2.85h-0.474v-0.949H431.3V771.3h-0.475v-1.425h-0.475v-1.425h-0.475v-1.425H429.4V765.6h-0.475v-1.425h-0.475v-1.425h-0.475v-1.425H427.5V759.9h-0.475q-0.238-1.425-.475-2.85h-0.475v-1.425H425.6V754.2h-0.475v-1.425h-0.475v-1.425h-0.475v-1.425H423.7q-0.237-1.423-.475-2.849h-0.475v-0.95h-0.475q-0.476-2.138-.95-4.275h-0.475v-1.425h-0.475V739H419.9v-1.425h-0.475v-1.425h-0.475v-1.425h-0.475V733.3H418v-1.425h-0.475v-1.425h-0.475v-1.425h-0.475q-0.237-1.425-.475-2.85c-1.182-2.983-2.282-4.749-2.375-9.024,2.264-1.314,1.784-1.472,5.7-1.425,1.293,1.058,6.721.079,7.6,1.425v0.95H427.5q0.237,1.425.475,2.85h0.475v1.424h0.475V723.8H429.4v1.425h0.475v1.425h0.475v1.425h0.475V729.5H431.3q0.237,1.425.475,2.85h0.474v1.425h0.475v0.95H433.2q0.238,1.425.475,2.85h0.475V739h0.475v1.425H435.1v1.425h0.475v1.425h0.475V744.7h0.475q0.238,1.424.475,2.849h0.475v1.425h0.475V750.4h0.475v1.425H438.9v1.425A76.414,76.414,0,0,1,443.171,766.073Zm73.147-33.724q-0.237.712-.475,1.425h-0.475v0.95l-0.95.475q-0.237.95-.475,1.9h-0.475q-0.474,1.425-.95,2.85h-0.475v1.425h-0.475V742.8h-0.475v1.9h-0.475v1.9h-0.475v3.324h-0.475V758c0.425,1.332,1.532,2.33,1.9,3.8a3.808,3.808,0,0,1,1.9.95v0.475l2.375,0.475v0.475h11.4v0.475h8.549v0.475h4.75l8.55,0.475v0.475h3.325l6.65,2.375,0.474,0.95h0.95v0.475a3.909,3.909,0,0,0,1.9.95,4.024,4.024,0,0,0,.95,1.9h0.475v0.949h0.475q0.239,0.951.475,1.9h0.475v1.9h0.475c0.528,1.791-.616,5.965-0.95,7.125v3.8h-0.475v2.85h-0.475v2.375h-0.475V796h-0.475q-0.237,1.9-.475,3.8h-0.475v1.9h-0.475v1.425h-0.475v1.425h-0.475v1.425h-0.475V807.4c-4.571,10.518-10.675,16.04-21.849,19.949-4.931,1.726-13.551.95-19.949,0.95-5.409,0-15.158.876-19.474-.475v-0.475h-1.9V826.87h-1.425V826.4h-1.425V825.92l-1.9-.475V824.97h-1.425l-0.475-.95h-0.95l-3.8-2.849v-0.95l-0.95-.475c-0.659-1.075-.486-2.493-0.95-3.8h-0.475v-3.325H482.6l0.474-7.125h0.475v-2.375c0.9-2.923,1.263-6.789,2.375-9.5,2.582-1.143,7-.974,10.925-0.95,0.834,1.575.978,2.074,0.95,4.75-1.329,1.436-.34,3.956-0.95,6.174h-0.475v8.075h0.475l0.475,1.9,1.425,0.475q0.237,0.476.475,0.95h0.95v0.475l3.325,0.475v0.475h13.774V816.9h7.6v-0.475h6.65l8.549-1.9v-0.475h0.95q0.238-.476.475-0.95h0.95l0.475-.95,2.85-2.375v-0.95l0.95-.475V807.4l0.95-.475v-0.95h0.475v-0.95h0.475V803.6h0.475v-0.95h0.475v-1.425h0.475V799.8h0.475v-1.425h0.475q0.713-4.51,1.425-9.024c0.779-4.57-.212-9.592-3.325-10.45-0.951-1.032-.968-0.428-2.375-0.95v-0.475h-5.225l-7.6-.475h-4.75v-0.475h-5.225v-0.475h-4.75v-0.475h-4.275V775.1l-6.175-.475v-0.475l-2.849-.475V773.2h-0.95v-0.474h-1.425q-0.239-.476-0.475-0.95l-1.9-.475v-0.475a5.335,5.335,0,0,0-2.375-1.425l-0.475-1.425h-0.475v-0.95h-0.475q-0.237-1.9-.475-3.8h-0.475c-0.637-2.23.031-8.421,0.475-9.975q0.237-3.087.475-6.174h0.475v-1.425h0.475v-1.425h0.475V742.8h0.475v-1.425h0.475q0.237-1.425.475-2.85h0.475v-0.95h0.475v-1.425h0.475V735.2h0.475v-1.425h0.475q0.237-.95.475-1.9h0.475v-0.95l0.95-.475V729.5l0.95-.475v-0.95c0.87-1.23,1.788-.786,2.375-2.85h0.949c1.517-2.678,4.363-3.742,7.125-5.224v-0.475l2.85-.95V718.1h1.425v-0.475h0.95V717.15l2.85-.475V716.2h1.9v-0.475h23.274c4.517,0,10.514-.809,14.249.475v0.475h1.425v0.475h0.95v0.475l2.85,0.95,0.475,0.95h0.95l2.85,3.324,1.425,0.95c3.7,5.264,2.205,13.417,0,19-0.826,2.092-.186,2.972-1.9,4.275v0.474h-9.025c-0.541-.54,0-0.189-0.95-0.474a12.8,12.8,0,0,1-.475-4.275h0.475v-2.85c1.2-4.291.376-10.006-3.324-10.925v-0.475h-1.425v-0.475l-5.7-.475c-3.589-1-18.275-1.027-21.849,0h-3.325v0.475h-1.9v0.475h-1.9v0.475h-0.95V729.5l-2.375.475-0.475.95h-0.95V731.4A3.9,3.9,0,0,1,516.318,732.349Zm149.619-15.674c0.177,0.928.93,1.99,0.475,3.325h-0.475v0.95h-0.475v1.424h-0.475V723.8a8.3,8.3,0,0,1-2.85,3.8q-0.237.476-.475,0.95H631.739l-1.425,1.9h-0.475l-1.425,6.65c-1.2,3.482-2.134,7.915-3.325,11.4q-0.237,1.9-.475,3.8c-0.983,2.864-1.872,6.635-2.85,9.5v1.9c-4.139,12.058-5.861,25.929-9.975,38q-0.237,1.9-.475,3.8c-1.611,4.706-2.663,10.493-4.274,15.2v1.9h-0.475v1.424H606.09v1.425l-0.95.475c-0.865,1.236.513,0.875-1.425,1.425-1.29,1.195-7.962.31-9.5,0q-0.237-.95-0.475-1.9h-0.475c-0.7-2.068,2.284-10.231,2.85-11.874q0.237-1.9.475-3.8c0.956-2.769,1.9-6.255,2.85-9.025v-1.9h0.475v-1.9h0.475v-1.9h0.475v-1.9c3.062-8.466,4.554-18.6,7.6-27.074q0.949-4.749,1.9-9.5c1.134-3.315,2.173-7.549,3.324-10.924q0.239-1.9.475-3.8h0.475q0.476-2.613.95-5.225c0.807-2.365,1.777-4.418,1.9-7.6-2.411-.883-6.782-0.475-9.974-0.475h-20.9a5.379,5.379,0,0,0-.95-0.95v-0.95H585.19v-2.375h0.475v-1.425h0.475v-1.424h0.475v-1.9h0.475V718.1h0.475q0.238-.712.475-1.425h0.475l0.475-.95h75.047A2.637,2.637,0,0,0,665.937,716.675Zm183.818,15.674h-0.95l-2.375,2.85h-0.475v0.95l-0.95.475q-0.237.949-.475,1.9l-0.95.475v0.95l-0.95.475v0.95l-0.95.475q-0.237.949-.475,1.9l-0.95.475v0.95l-0.949.475v0.95l-0.95.475v0.949h-0.475v0.95l-0.95.475v0.95l-0.95.475q-0.238.951-.475,1.9l-0.95.475v0.95l-0.95.475v0.95l-0.95.475q-0.238.95-.475,1.9l-0.95.475v0.95l-0.95.475v0.95l-0.95.475v0.95h-0.475v0.95l-0.95.475v0.95l-0.95.475q-0.237.949-.475,1.9h-0.475l-0.475,1.425-0.95.475v0.95l-0.95.475q-0.237.95-.475,1.9l-0.95.475v0.949l-0.95.475q-0.237.712-.475,1.425h-0.475q-0.237.951-.475,1.9h-0.475q-0.237.713-.475,1.425-0.474.239-.95,0.475-0.237.95-.475,1.9l-0.95.475v0.95l-0.95.475v0.95l-0.95.475-0.474,1.9-0.95.475v0.95l-0.95.475v0.95l-0.95.475v0.95h-0.475v0.95l-0.95.475v0.95q-0.476.237-.95,0.475-0.239.95-.475,1.9l-0.95.475v0.95l-0.95.475v0.949l-0.95.475q-0.237.951-.475,1.9l-0.95.475v0.95l-0.95.475v0.95l-0.95.475v0.95h-0.475v0.95l-0.95.475v0.95l-0.95.475q-0.237.95-.475,1.9l-0.95.475v0.95l-0.95.475q-0.237.712-.475,1.425h-0.475q-0.237.95-.475,1.9l-0.95.475v0.95l-0.95.475v0.95l-0.95.475q-0.237.949-.475,1.9l-0.95.475q-0.237,1.186-.475,2.375h-0.475v0.949h-0.475v0.95l-3.324,2.85c-4.074.122-8.873,0.546-10.45-1.9h-0.475V824.5h-0.475q-0.237-3.324-.475-6.649c-1.193-4.074-1.185-9.681-2.375-13.775v-3.325c-1.51-5.156-1.368-11.958-2.85-17.1v-3.8c-1.152-3.968-1.231-9.328-2.375-13.3v-3.8c-0.841-2.9-1.064-7.072-1.9-9.975v-3.8h-0.475v-3.324h-0.475v-3.325h-0.475V739h-0.475v-2.85h-0.474q-0.238-1.188-.475-2.375h-1.425c-0.324,1.511-.689.911-0.95,1.425v1.425h-0.475v1.425h-0.475v1.9h-0.475v1.9h-0.475q-0.476,2.848-.95,5.7c-2.046,5.935-3.19,13.062-5.225,19v1.9h-0.475v1.9h-0.475v1.9h-0.475v1.9c-3.3,9.611-4.789,20.781-8.075,30.4q-0.237,1.9-.475,3.8c-1.4,4.1-2.391,9.2-3.8,13.3v1.9a7.2,7.2,0,0,1-2.374,3.324l-0.475.95h-8.55c-0.541-.54,0-0.189-0.95-0.475a9.834,9.834,0,0,1-.475-3.8c0.953-1.107.418-2.256,0.95-3.8h0.475v-1.9c1.408-4.1,2.4-9.2,3.8-13.3q0.237-1.9.475-3.8c1.195-3.482,2.136-7.914,3.325-11.4q0.237-1.9.475-3.8c3.717-10.836,5.329-23.352,9.024-34.2q0.95-4.749,1.9-9.5h0.475q0.237-1.9.475-3.8c1.611-4.706,2.672-10.491,4.275-15.2,0.9-2.642.04-5.837,2.85-6.649,0.961-.808,2.814-0.011,4.75,0h13.774l1.425,1.9h0.475v5.224c1.273,1.516.3,4.866,0.95,7.125h0.475v3.8h0.475v3.325h0.475v3.8h0.475v3.8h0.475V748.5h0.475v3.8h0.475v3.8h0.475v3.325h0.475v3.8h0.475v3.8c2.219,7.648,1.6,17.518,3.8,25.174V796c1.059,3.667,1.014,8.556,2.375,11.874h0.95a4.184,4.184,0,0,1,.95-0.95v-0.95l0.949-.475q0.238-.949.475-1.9l0.95-.475v-0.95l0.95-.475v-0.95l0.95-.475q0.239-.949.475-1.9h0.475c0.159-.474.317-0.95,0.475-1.424l0.95-.475v-0.95l0.95-.475V794.1h0.475v-0.95l0.95-.475v-0.95l0.95-.475,0.475-1.9,0.95-.475v-0.95l0.95-.475V786.5l0.95-.475q0.237-.95.475-1.9l0.95-.475V782.7l0.95-.475v-0.95l0.95-.475v-0.95h0.475V778.9l0.95-.475v-0.95l0.95-.475q0.237-.949.475-1.9l0.95-.475v-0.95l0.95-.475c0.158-.474.316-0.95,0.475-1.424h0.475q0.237-.951.475-1.9l0.95-.475v-0.95l0.95-.475v-0.95l0.95-.475V765.6h0.474v-0.95l0.95-.475v-0.95l0.95-.475q0.239-.95.475-1.9l0.95-.475v-0.95l0.95-.475V758l0.95-.475q0.239-.95.475-1.9l0.95-.475V754.2l0.95-.475v-0.95l0.95-.475v-0.95h0.475V750.4l0.95-.475v-0.95l0.95-.475q0.237-.95.475-1.9h0.475l0.475-1.425,0.95-.475v-0.95l0.95-.475q0.237-.951.475-1.9l0.95-.475v-0.95l0.95-.475,0.475-1.425h0.475q0.237-.949.475-1.9h0.475q0.237-.712.475-1.425l0.95-.475q0.237-.95.475-1.9l0.95-.475v-0.95l0.95-.475V729.5l0.95-.475q0.237-.95.475-1.9l0.95-.475V725.7l0.949-.475v-0.95l0.95-.475q0.239-.949.475-1.9h0.475c0.159-.474.317-0.95,0.475-1.424l0.95-.475v-0.95l3.325-2.85h13.3c1.87,0,4.534-.329,5.7.475v0.475c1.076,0.952.847,0.381,0.95,2.375h-0.475q-0.237,1.187-.475,2.374h-0.475v1.9h-0.474v1.9H864.48v1.9c-1.617,4.7-2.666,10.493-4.275,15.2q-0.239,1.9-.475,3.8h-0.475v1.424H858.78v1.9h-0.475v1.9H857.83v1.9h-0.475q-0.237,1.9-.475,3.8h-0.475q-0.237,1.9-.475,3.8c-4.506,13.141-6.47,28.241-10.925,41.323q-0.237,1.9-.475,3.8c-1.4,4.1-2.4,9.2-3.8,13.3v1.9h-0.475v1.9h-0.474v1.424h-0.475v0.95h-0.475v0.95h-0.475l-0.475.95h-0.95V828.3a1.109,1.109,0,0,1-.95-0.475h-6.65v-0.475c-1.214-.611-0.6.123-1.425-0.95h-0.475v-2.849h0.475q0.237-1.664.475-3.325h0.475v-1.9h0.475v-1.9c1.379-4.01,2.435-8.848,3.8-12.825q0.237-1.9.475-3.8c3.057-8.9,4.567-19.159,7.6-28.023v-1.9h0.475v-1.9h0.475v-1.9h0.475v-1.9h0.475q0.951-4.749,1.9-9.5c0.722-2.116,1.642-4.973,2.375-7.125q0.239-1.9.475-3.8C849.048,740.23,850.42,736.394,849.755,732.349Zm86.922-2.375a4.212,4.212,0,0,1-1.9-.95v-0.475h-1.425v-0.475h-1.425V727.6h-8.075v-0.475h-6.175c-5.128,0-10.7-.22-14.724.95H900.1l-5.225,1.9-1.425,1.9H892.5l-0.475.95h-0.475v0.95l-1.424.95c-1.487,2.145-1.833,4.44-2.85,7.125-1,2.627-4.487,13.84-1.9,16.624,0.617,2.143,1.719,2.247,3.325,3.325l0.475,0.95h0.95v0.475l3.8,0.475c5.5,1.673,13.919-.145,19.475,1.425h5.7V765.6h3.8c2.687,0.8,6.482,1.393,9.025,2.375h1.425v0.475h0.95l0.475,0.95h0.95l0.475,0.95h0.95q0.237,0.474.475,0.95H938.1v0.95l0.95,0.475v0.949l0.95,0.475v1.425c0.76,1.85,2.427,6.567,1.425,9.975q-2.613,9.5-5.225,19h-0.475q-0.239,1.188-.475,2.375h-0.475q-0.238.949-.475,1.9h-0.475L932.4,813.1l-0.95.475-0.475,1.9-0.95.475v0.95l-1.425.95v0.95l-2.85,2.375q-0.237.474-.475,0.95h-0.95l-0.95,1.425h-0.95v0.474h-0.95V824.5h-1.425v0.475h-1.425v0.475h-1.9v0.475H915.3V826.4h-1.425v0.475h-1.9v0.475h-1.9v0.475h-2.85V828.3h-16.15c-13.695,0-25.294.012-30.873-8.074v-0.95l-0.95-.475c-0.659-1.076-.49-2.49-0.95-3.8H857.83v-5.7h0.475v-4.275h0.475v-2.85h0.475V799.8h0.475v-1.425h0.475v-1.424h0.475V796a10.682,10.682,0,0,1,2.375-2.85q0.237-.476.475-0.95h8.549c0.812,1.395,1.373,1.36,1.425,3.8h-0.475q-0.237,1.424-.475,2.849h-0.475v1.9H871.6V811.2h0.475v1.425h0.475q0.239,0.712.475,1.425l1.425,0.475V815h1.425v0.475L883,815.946v0.475h6.175c6.209,1.725,21.289.078,25.649-1.9v-0.475h0.95l0.475-.95,1.9-.475,1.425-1.9,0.95-.475V809.3l0.95-.475v-0.95h0.475q0.476-1.425.95-2.85h0.475V803.6h0.475v-1.425h0.475v-1.425H924.8v-1.425h0.475V797.9h0.475q0.237-1.663.475-3.325H926.7v-1.9c0.547-1.681,1.84-7.16.95-9.975h-0.475q-0.237-1.187-.475-2.375l-1.425-.95V778.9h-0.95v-0.475l-7.6-1.425H911.5c-2.8-.8-7.6.342-10.45-0.475v-0.475h-5.225v-0.475h-4.275V775.1h-3.8v-0.475H884.9v-0.475h-2.375v-0.475H881.1V773.2h-0.95v-0.474l-2.85-.95-0.95-1.425H875.4q-1.662-2.376-3.325-4.75v-1.425H871.6v-6.65q0.238-2.85.475-5.7,1.662-5.935,3.325-11.874h0.475v-1.425h0.475v-0.95h0.475v-1.425H877.3l0.475-1.9h0.475q0.237-1.188.475-2.375l0.95-.475,0.95-2.85,1.425-.95v-0.95l1.9-1.425,0.475-.95h0.95l1.425-1.9h0.95q0.237-.474.475-0.949l2.849-.95V720h0.95v-0.475l2.85-.95V718.1c6.651-2.9,17.078-2.375,26.6-2.375H938.1V716.2h1.425v0.475l2.849,0.95V718.1h0.95v0.475h0.95v0.475h0.95l0.95,1.425h0.95l1.425,1.9h0.475v0.95l0.95,0.475v0.95h0.475q0.237,0.951.475,1.9H951.4v4.275h0.475q-0.237,4.988-.475,9.975h-0.475v0.95h-0.475v1.425l-0.95.475v0.95q-1.662,1.424-3.325,2.849a42.319,42.319,0,0,1-7.6-.474q-0.238-.712-0.475-1.425c-2.233-2.558,1.259-9.875,0-13.3h-0.475V731.4h-0.475Q936.914,730.687,936.677,729.974ZM389.5,747.548c-0.332-1.83-1.656-4.088-.95-6.649h0.475q0.237-3.562.475-7.125h-0.475q-0.237-1.188-.475-2.375c-1.266-.748-2.387-2.285-3.8-2.85h-1.9v-0.475h-1.9V727.6h-4.275v-0.475h-7.6c-6.91,0-13.457.173-18.524,1.9h-1.9V729.5H347.7v0.475h-1.425q-0.237.476-.475,0.95h-0.95l-0.95,1.425-2.375,1.9v0.95l-0.95.475v0.95H340.1l-0.475,1.9H339.15q-0.237,1.425-.475,2.85H338.2v1.9h-0.475q-0.237,3.324-.475,6.649h-0.475v8.55c0.433,1.333,1.518,2.33,1.9,3.8,1.676,0.4,3.148,1.856,4.75,2.375H357.2c9.56,0,18.644.821,25.649,3.325h1.9v0.475l2.375,0.475q0.238,0.474.475,0.95h0.95q0.238,0.712.475,1.425l0.95,0.475q0.237,0.949.475,1.9h0.475c0.709,1.633,1.747,11.466.95,14.25q-0.95,5.7-1.9,11.4l-4.275,10.45-0.95.475q-0.474,1.425-.95,2.85l-0.95.475v0.95h-0.475q-0.237.713-.475,1.425l-0.949.475v0.95q-1.425,1.187-2.85,2.375l-1.425,1.9h-0.95q-0.238.474-.475,0.95H374.3q-0.238.474-.475,0.95h-0.95v0.474l-1.9.475v0.475h-1.425v0.475H368.6v0.475h-1.425V826.4h-1.425v0.475h-1.9v0.475h-1.9v0.475H341.525c-9.176,0-18.606.718-24.224-2.85q-0.237-.474-0.475-0.95h-0.95l-1.425-1.9H313.5v-0.475l-1.425-.95q-0.237-.951-0.475-1.9c-3.155-5.952-2.541-11.1-.475-17.575v-2.375c1.212-3.913.787-6.208,6.175-6.174,1.207-1.138,5.31-.278,6.65,0q0.237,0.713.475,1.425H324.9q-0.238,2.374-.475,4.749c-0.594,1.919-2.407,8.279-1.425,11.4,0.331,1.054,1.151,2,1.425,3.325l1.425,0.475q0.237,0.476.475,0.95h1.9c4.848,1.755,11.785,1.425,18.524,1.425,3.392,0,7.827.264,10.449-.475h4.275v-0.475h2.85V815h1.425v-0.475h1.425v-0.475h0.95v-0.475h0.95q0.237-.712.475-1.425l1.9-1.425v-0.95l0.95-.475,0.475-1.9,0.95-.475,1.425-4.275h0.475V801.7H376.2v-1.425a33.841,33.841,0,0,0,2.375-12.824v-5.225H378.1q-0.238-1.186-.475-2.375l-1.425-.475V778.9h-0.95q-0.239-.474-0.475-0.95l-3.8-.475V777h-12.35v-0.475H350.55v-0.475h-5.225v-0.475h-3.8V775.1H338.2v-0.475h-2.85v-0.475h-2.375v-0.475h-0.95V773.2l-2.374-.474-0.475-.95h-0.95l-0.475-.95-2.375-1.9q-0.238-.951-0.475-1.9h-0.475v-0.95h-0.475c-0.485-1.128-1.482-8.114-.95-9.975h0.475q0.237-3.324.475-6.65h0.475q0.237-2.136.475-4.274h0.475q0.237-1.663.475-3.325h0.475q0.237-1.425.475-2.85h0.475q0.237-1.188.475-2.375h0.475q0.237-.95.475-1.9h0.475v-0.95h0.475v-0.95h0.474v-0.95H330.6v-0.95h0.475v-0.95l0.95-.475v-0.95l1.425-.95v-0.95q1.188-.95,2.375-1.9V723.8l0.95-.475v-0.475h0.95c0.317-.474.634-0.95,0.95-1.424h0.95l0.475-.95h0.95V720l2.85-.95v-0.475l2.85-.475v-0.475h1.9c7.189-2.315,18.688-1.425,28.024-1.425,7.39,0,14.972-.485,19.474,2.375l0.475,0.95h0.95l0.475,0.95,2.375,1.9q0.237,0.951.475,1.9l0.95,0.475c2.208,4.178,1.38,11.632,0,16.15v2.375a7.1,7.1,0,0,1-2.375,3.325q-0.238.474-.475,0.949h-9.5Zm348.636-30.873c0.611,3.093-.475,4.919-1.424,7.6v2.375h-0.475a1.528,1.528,0,0,1-1.425.95c-1.692,1.666-9.824.95-13.3,0.95h-38v0.475h-0.95V729.5h-0.475v0.475h-0.475v0.95h-0.475v1.425h-0.475v1.9h-0.475v1.425h-0.475v1.9c-1.3,3.834-2.471,8.584-3.8,12.349q-0.237,1.9-.475,3.8c-0.994,2.949-2.3,5.609-2.375,9.5l0.95,0.475c1.7,1.666,9.818.95,13.3,0.95h25.174l9.5-.475v0.475h1.425c0.688,3.534.15,6.007-.475,9.024l-2.85,2.375H671.162a4.133,4.133,0,0,1-.95.95v1.425h-0.475v0.95h-0.475q-0.237,1.9-.475,3.8h-0.475V784.6h-0.475q-0.474,2.611-.95,5.225h-0.475q-0.474,2.611-.95,5.225h-0.475q-0.237,1.9-.475,3.8h-0.475v1.425h-0.475q-0.474,2.613-.95,5.225h-0.475q-0.237,1.9-.475,3.8h-0.474a14.782,14.782,0,0,0-.95,5.225,6.306,6.306,0,0,1,1.9,1.425H712.96a3.575,3.575,0,0,0,.95,1.425q-1.423,4.749-2.849,9.5l-1.425.475c-0.868.756-3.15,0.474-4.75,0.475H645.513l-0.475-1.425h-0.475q0.237-2.136.475-4.274h0.475v-1.9c1.591-4.607,2.688-10.1,4.275-14.725q0.237-1.9.475-3.8c1.577-4.573,2.693-10.1,4.275-14.724q0.237-1.9.475-3.8c4.2-12.193,6.117-26.356,10.449-38.473q0.476-2.85.95-5.7h0.475q0.239-1.9.475-3.8c1.367-4.013,2.438-8.81,3.8-12.825v-1.9h0.475q0.237-1.425.475-2.85l0.95-.475,0.475-.95h63.648C737.726,716.741,737.186,716.389,738.134,716.675Z" transform="translate(-262 -493)"/>
  </g>
</svg>
