<svg xmlns="http://www.w3.org/2000/svg" width="198.496" height="28.825" viewBox="0 0 1391 202">
  <defs>
    <style>
      .cls-1, .cls-2 {
        fill-rule: evenodd;
      }

      .cls-2 {
        fill: #737171;
      }
    </style>
  </defs>
  <g id="Artboard_1" data-name="Artboard 1">
    <path id="Color_Fill_1" data-name="Color Fill 1" class="cls-1" d="M783.994,510.61c3.447,0.6,8.311.414,12.411,0.414h31.853v0.414l1.655,0.413c0.6,3.192-.306,4.413-1.241,7.033l-0.414,2.9h-0.414v1.654h-0.413v1.241h-0.414l-0.414,2.9H826.19l-0.414,2.9h-0.414q-0.207,1.448-.413,2.9h-0.414v1.655c-1.251,3.488-2.833,6.655-1.241,10.755,2.027,1.045,4.716.828,7.86,0.828h14.892q-3.928,12.615-7.86,25.234H813.779q-0.62,1.861-1.241,3.723l-0.414,2.9h-0.413v1.655H811.3v1.241h-0.414q-0.207,1.448-.413,2.9h-0.414q-0.414,2.274-.827,4.55h-0.414l-0.414,2.9h-0.413v1.655h-0.414V595H807.16v1.241h-0.413V597.9c-2.683,7.449-4.469,16.059-7.033,23.58v1.655c-0.643,1.82-2.629,6.721-1.655,9.928h0.414v1.655h0.414q0.206,0.826.413,1.655l0.828,0.413v0.828l1.654,1.241v0.413h19.857l-7.446,24.408H769.515v-0.414h-2.068v-0.414h-2.069v-0.413h-1.654v-0.414h-1.655V661.6h-1.655v-0.413h-1.655v-0.414l-6.205-1.655q-0.207-.414-0.413-0.827h-0.828v-0.414l-1.241-.827v-0.828l-0.827-.413v-0.828h-0.414l-0.414-1.654H748l-0.414-3.31h-0.414v-4.964a40.345,40.345,0,0,1,2.9-14.479v-1.655h0.414v-1.241H750.9v-1.241h0.414v-1.654c2.809-7.77,5.058-16.612,7.86-24.408v-1.654h0.414v-1.241H760v-1.242h0.414v-1.654h0.414v-1.241h0.414v-1.241h0.413v-1.241h0.414q0.414-2.069.827-4.137h0.414q0.414-2.068.827-4.137h0.414v-1.655h0.414V579.7h0.413v-1.241h0.414V576.8h0.414v-1.241h0.413v-3.723c-2.026-1.044-4.716-.827-7.86-0.827H744.694v-0.414c1.2-1.289,1.328-4.346,2.069-6.205,1.526-3.828,3.021-8.154,4.55-12v-1.241h0.414V549.91h0.414v-1.241h0.413l0.414-2.482h0.414c0.846-.75,3.432-0.413,4.964-0.414h13.238V545.36c4.053-1.176,3.579-6.063,4.964-9.929h0.413V534.19h0.414l0.414-2.9H778.2l0.414-2.895h0.414q0.414-2.276.827-4.551h0.414v-1.655h0.414v-1.241H781.1V519.3ZM295.849,516.4l100.525,0.414v0.413H430.71v0.414l3.723,0.827v0.414l2.482,0.827v0.414h0.827v0.414h0.828v0.413l2.482,0.828q0.207,0.412.413,0.827h0.828l0.827,1.241h0.827l2.069,2.482,1.655,1.241V528.4l1.241,0.827q0.207,0.828.413,1.655l0.828,0.413v1.241h0.413v0.828h0.414c0.54,1.27,1.451,6.224.827,8.273h-0.413v1.655H450.98v1.655h-0.414V546.6h-0.413v2.068h-0.414v1.655h-0.414v1.655h-0.413v1.654H448.5v1.655h-0.414q-0.412,2.688-.827,5.378h-0.414v1.655H446.43v1.654h-0.414v1.655H445.6v1.655h-0.413l-0.828,5.378h-0.414v1.654c-0.658,1.949-1.411,4.67-2.068,6.619v1.655h-0.414q-0.619,3.516-1.241,7.033h-0.413l-0.828,3.723H438.57l-0.828,2.482h-0.413l-0.414,1.655-0.827.413-0.414,1.655-0.828.414v0.827l-1.241.827v0.828l-2.482,2.068q-1.24,1.448-2.482,2.9h-0.827q-0.414.621-.827,1.241h-0.828l-0.414.827h-0.827l-0.414.828-1.654.413v0.414h-0.828v0.414H421.2v0.413l-2.482.828V613.2h-1.241v0.414h-1.241v0.414H414.99v0.413h-1.241v0.414h-1.655v0.414h-2.068v0.414h-2.9V616.1l-32.681.414c-4.438.74-10.6,0.413-15.72,0.414l-15.306.413-14.479,46.333H279.3l27.3-98.043,1.241-.414V564.8l2.069-.414v-0.414h0.827v-0.413h1.241v-0.414l1.655-.414v-0.413h1.241v-0.414l1.654-.414V561.08h1.241v-0.414l1.655-.414v-0.414h1.241v-0.413l1.655-.414V558.6h1.241v-0.413l1.655-.414v-0.414h1.241v-0.413l1.655-.414v-0.414h1.241V555.7l1.654-.414v-0.414h1.241v-0.413l1.655-.414v-0.414h1.241V553.22l1.655-.414v-0.414h1.241v-0.413l1.655-.414v-0.414h1.241v-0.414l1.654-.413V549.91h1.241V549.5l1.655-.413v-0.414h1.241v-0.414l1.655-.413v-0.414h1.241v-0.414l1.655-.413v-0.414h1.241v-0.414l3.723-1.241v-0.413l-66.6-.414Zm68.672,27.717q-6.62,22.129-13.238,44.264h22.339c4.064,0,7.381.957,9.928-.828l1.655-2.068,0.827-.414v-0.827l0.827-.414v-0.827l0.828-.414q0.412-1.24.827-2.482h0.414q0.414-1.24.827-2.482h0.414v-1.241h0.414v-0.828H391q2.483-8.686,4.964-17.374v-2.9c0.009-2.876-.1-5.739-1.241-7.446l-1.654-1.241-0.828-1.241c-2.692-1.886-11.841-2.445-16.133-1.241H364.521ZM956.086,664.5H878.727l-19.029-.414v-0.413h-3.31v-0.414h-1.654v-0.414h-1.241v-0.413h-0.828v-0.414h-1.241V661.6l-2.482-.413v-0.414h-0.827v-0.414h-0.828q-0.206-.414-0.413-0.827h-0.828q-0.413-.621-0.827-1.241h-0.827v-0.414l-1.241-.827v-0.828l-1.241-.827-0.414-1.655-0.828-.413V652.09h-0.413v-0.828h-0.414v-1.241h-0.414V648.78h-0.413v-1.655c-0.46-1.464-1.5-7.668-.828-9.928H838.6v-2.068h0.414q0.207-1.242.413-2.483c1.548-3.9,3-8.507,4.551-12.41V619h0.414v-1.241h0.413v-1.241h0.414v-1.241h0.414v-1.241a61.009,61.009,0,0,0,3.309-9.515l51.3-20.27v0.827h-0.414l-0.414,2.9H899v1.655h-0.414l-0.414,2.895h-0.413v1.241h-0.414l-0.414,2.9h-0.413l-0.414,3.31c-1.949,5.437-3.432,11.936-5.378,17.374l-0.414,3.31c-0.984,2.776-2.833,6.7-1.654,10.342v1.654h0.413v1.242h0.414v0.827l0.827,0.414v0.827h0.414q0.621,0.826,1.241,1.655h0.827v0.413a5.009,5.009,0,0,1,1.241.828c5.949,0.124,21.16,1.173,22.339-2.9,1.262-1.216.24-1.571,0.828-3.31h0.413l0.414-2.895h0.414V628.51h0.413v-1.241h0.414v-1.655h0.414v-1.241H920.1v-1.655c3.589-9.916,5.932-21.125,9.515-31.026v-1.655h0.414V588.8h0.413v-1.655h0.414v-2.068c1.122-3.73,1.191-11.322-2.482-12.41-1.026-1.468-3.3-1.24-5.792-1.241H909.34c-7.672-.346-16.9-0.414-25.235-0.414H872.936c-4.323-1.2-12.2-.424-17.375-0.414v-0.413c1.2-1.29,1.328-4.347,2.068-6.206,1.556-3.9,3-8.508,4.551-12.41v-1.241h0.414v-1.241h0.413l0.414-2.482h0.414c0.746-.665,2.749-0.413,4.136-0.414h10.343c0.7-.617,2.4-0.412,3.723-0.414h9.1l35.576-.413,19.443-.414c3.073,0,7.119-.27,9.515.414l5.792,0.413v0.414h1.654V546.6l3.723,0.827v0.414l2.483,0.827v0.414h0.827V549.5l1.241,0.414,0.414,0.827h0.827q0.621,0.828,1.241,1.655H974.7l0.414,0.828h0.414v0.827l1.655,1.241v0.827l1.241,0.828,2.9,6.619v2.068h0.414V567.7h0.414c0.942,3.316-.97,7.179-1.655,9.1q-0.414,2.276-.827,4.551h-0.414v1.655h-0.414v1.241h-0.413l-0.414,2.895H977.6q-0.207,1.449-.413,2.9H976.77l-0.828,4.551h-0.413v1.654h-0.414v1.242H974.7v1.654c-1.967,5.452-3.434,11.934-5.377,17.375v1.655H968.91v1.654H968.5v1.241h-0.413v1.655c-1.96,5.434-3.43,11.937-5.378,17.375v1.654h-0.414v1.242h-0.414v1.654h-0.413V646.3H961.05v1.241h-0.414q-0.207,1.447-.413,2.9h-0.414l-0.414,2.9h-0.413l-0.414,2.895h-0.414l-0.414,3.31h-0.413v1.241Q956.706,662.639,956.086,664.5Zm-245.314-.827H664.44q1.24-4.758,2.482-9.515h0.414q0.207-1.655.413-3.31c1.821-5.038,3.163-11.109,4.965-16.133q0.205-1.655.413-3.31h0.414v-1.241h0.414q0.207-1.447.413-2.895h0.414v-1.655H675.2v-1.655c3.212-8.943,5.091-19.176,8.273-28.13l0.414-3.31c1.862-5.242,6.3-16.961,0-20.684-1.5-1.416-5.527-.7-8.274-0.827-3.294-.149-9.158-1.284-12.41,0v0.414h-0.827v0.413h-0.828q-0.62.828-1.241,1.655l-1.241.827q-12.822,44.467-25.648,88.942h-45.5l20.27-71.981,9.1-4.137v-0.413l1.655-.414V585.9h1.241v-0.413l1.655-.414v-0.414h0.827v-0.413h0.827v-0.414h0.828v-0.414l2.482-.827v-0.414h1.241v-0.413l1.655-.414v-0.414h0.827v-0.413h0.827v-0.414l2.482-.827v-0.414h1.242v-0.414l1.654-.414v-0.413h0.828v-0.414h0.827V576.8h0.827v-0.413l2.482-.828v-0.413h1.241v-0.414h0.828v-0.414h0.827V573.9h0.828V573.49h0.827v-0.414h0.827v-0.413l2.482-.828v-0.413h1.241v-0.414l2.483-.827v-0.414H612.73l6.2-23.58,80.254-.827c8.372,0,16.1.128,22.339,2.068l3.723,0.414v0.413l2.482,0.414v0.414l1.655,0.413,0.414,0.828h0.827l0.414,0.827h0.827l0.414,0.828,1.655,1.241v0.827l0.827,0.414,0.414,1.241h0.413q1.035,3.309,2.069,6.619V567.7a39.392,39.392,0,0,1-2.9,14.479v1.655h-0.414v1.241h-0.413v1.241h-0.414v1.655c-3.35,9.27-5.766,19.711-9.1,28.958v1.654H724.01v1.241H723.6v1.655h-0.413v1.241h-0.414v1.241h-0.414q-0.412,2.068-.827,4.137h-0.414v1.655H720.7v1.241h-0.414v1.241h-0.414q-0.413,2.069-.827,4.137h-0.414q-0.207,1.448-.413,2.895h-0.414q-0.414,2.068-.827,4.137h-0.414v1.655H716.15V646.3h-0.413v1.241h-0.414v1.655h-0.414v1.241H714.5v1.241h-0.413l-0.414,2.9h-0.414q-0.413,2.067-.827,4.136h-0.414v1.655A23.287,23.287,0,0,0,710.772,663.673ZM575.912,617.34H499.8c-2.284,4.136-6.149,8.956-3.724,15.306v1.242h0.414l0.414,1.654,1.654,1.241v0.828l1.242,0.413q0.412,0.621.827,1.241h70.326l-7.033,24.408H486.143c-17.335,0-29.213,1.087-36.4-9.515l-0.827-.414v-0.827l-0.828-.414v-0.827h-0.413v-1.241h-0.414v-0.828h-0.414v-1.241H446.43v-1.654h-0.414v-2.9H445.6v-5.378h0.414v-2.482h0.414v-1.241h0.413l0.828-4.137h0.413v-1.241H448.5V628.1h0.414v-1.241h0.413l0.414-2.9h0.414v-1.241h0.413v-1.241h0.414v-1.241h0.414q0.62-2.688,1.241-5.378h0.413l1.242-5.378H454.7v-1.654h0.414v-1.241h0.414v-1.242h0.413V604.1h0.414v-1.241h0.414q0.62-2.688,1.241-5.377h0.413v-1.655h0.414q0.621-2.275,1.241-4.551c2.152-.9,4.241-2.255,6.2-3.309h0.828v-0.414h0.827v-0.414h0.827v-0.413H469.6v-0.414h0.827V585.9h1.241v-0.413h0.828v-0.414l1.654-.414v-0.413l1.655-.414v-0.414h0.827v-0.413h0.828v-0.414h0.827v-0.414h0.827v-0.413h0.828V581.35h0.827v-0.414l1.655-.413v-0.414l1.655-.414v-0.413H484.9v-0.414h0.827v-0.414h0.828V578.04h0.827v-0.413h0.827v-0.414l2.483-.827v-0.414l2.482-.827v-0.414h1.241v-0.414h0.827V573.9h0.827V573.49H496.9v-0.414h0.827v-0.413h0.827c1.807-.966,3.543-2.367,5.792-2.9v-0.414H464.632c1.094-12.934,11.439-19.5,22.338-22.752h51.711c11.871,0,28.691-1.381,37.231,2.068h1.241v0.414h0.827V549.5h0.828q0.207,0.414.413,0.828l1.655,0.413,1.241,1.655h0.828v0.414l1.241,0.827v0.828l1.241,0.827v0.827l0.827,0.414v0.827h0.414q0.207,0.828.413,1.655H587.5q0.414,2.276.827,4.551c0.473,1.521,1.031,6.783.414,8.687h-0.414v1.241h-0.413L587.5,576.8h-0.414v1.241h-0.413l-0.414,2.9H585.84q-0.206,1.447-.413,2.9h-0.414q-0.414,2.276-.827,4.551h-0.414l-0.414,2.895h-0.413v1.655h-0.414v1.655h-0.414v1.241H581.7v1.655H581.29v1.241h-0.414q-0.207,1.448-.413,2.895h-0.414l-0.828,4.551h-0.413v1.655A75.032,75.032,0,0,0,575.912,617.34Zm-61.639-47.573-2.068,2.482h-0.414v0.827l-0.827.414-0.414,1.655h-0.413l-0.414,1.654h-0.414v1.241H508.9v1.242h-0.414v1.241h-0.414v1.654h-0.414v1.655h-0.413v1.655c-0.543,1.625-2.633,5.365-1.241,7.446,1.119,1.673,4.669,1.241,7.446,1.241,6.965,0,14.8.179,21.1-.414l1.241-1.654H536.2q0.206-.828.413-1.655h0.414l0.414-5.792h0.413v-2.895h0.414a24.739,24.739,0,0,0,0-7.447h-0.414q-0.207-.827-0.413-1.654l-0.828-.414q-0.207-.621-0.413-1.241c-2.123-1.64-8.461-.87-12-0.827C523.247,569.321,516.3,569.731,514.273,569.767Z" transform="translate(-262 -493)"/>
    <path id="Color_Fill_2" data-name="Color Fill 2" class="cls-2" d="M1123.17,607.073h1.9l3.33-3.8c0.31-.158.63-0.317,0.95-0.475v-0.95l2.85-2.375v-0.95q1.65-1.425,3.32-2.85v-0.95l2.85-2.375V591.4c0.48-.316.95-0.633,1.43-0.95,0.47-.633.95-1.266,1.42-1.9h0.48V587.6q1.65-1.425,3.32-2.85V583.8c0.48-.317.95-0.634,1.43-0.95,0.31-.475.63-0.95,0.95-1.425h0.47v-0.95q1.665-1.425,3.32-2.85v-0.95l3.33-2.85v-0.95l2.85-2.375v-0.95q1.665-1.425,3.32-2.85v-0.95l2.85-2.375v-0.949c0.48-.317.95-0.634,1.43-0.95,0.47-.634.95-1.267,1.42-1.9h0.48v-0.95c0.35-.479,1.43-0.857,1.9-1.425a64.751,64.751,0,0,1,10.92.475,8.924,8.924,0,0,1,.48,3.325l-2.85,2.374v0.95l-3.33,2.85v0.95l-2.85,2.375v0.95l-2.85,2.375v0.95l-2.85,2.375v0.95q-1.65,1.425-3.32,2.85v0.95h-0.48c-0.31.475-.63,0.95-0.95,1.425-0.47.316-.95,0.633-1.42,0.95v0.95c-0.48.316-.95,0.633-1.43,0.95-0.31.475-.63,0.95-0.95,1.425h-0.47v0.949l-2.85,2.375c-5.6,7.726-12.46,14.111-18.05,21.85l-2.85,2.374v0.95q-1.665,1.425-3.32,2.85v0.95l-2.85,2.375q-0.96,4.749-1.9,9.5c-2.72,8.025-4.07,17.585-6.65,25.649V659.8h-0.48v1.9c-0.55,1.62-1.65,5.858-2.85,6.649-1.84,1.219-7.22.521-9.97,0.475-0.87-1.482-1.42-1.608-1.43-4.274,0.98-1.059.42-2.288,0.95-3.8h0.48v-1.425h0.47v-1.9h0.48v-1.9h0.47l0.48-3.325h0.47l0.48-3.8h0.47l0.48-3.325h0.47v-1.9h0.48v-1.9h0.47v-1.425h0.48v-1.9h0.47c0.32-1.742.63-3.484,0.95-5.225h0.48v-1.9h0.47l0.48-6.175h0.47v-3.8h-0.47v-3.325h-0.48c-0.16-.95-0.32-1.9-0.47-2.85h-0.48v-0.949h-0.47V612.3h-0.48v-1.425h-0.47v-1.425h-0.48v-1.425h-0.47V606.6h-0.48v-1.425h-0.47v-1.425h-0.48v-1.425h-0.47V600.9h-0.48c-0.16-.95-0.31-1.9-0.47-2.85h-0.48v-1.425h-0.47V595.2h-0.48v-1.425h-0.47v-1.425h-0.48v-1.425h-0.47l-0.48-2.849h-0.47v-0.95h-0.48c-0.31-1.425-.63-2.85-0.95-4.275h-0.47v-1.425h-0.48V580h-0.47v-1.425h-0.48v-1.425h-0.47v-1.425h-0.48V574.3H1098v-1.425h-0.48v-1.425h-0.47v-1.425h-0.48c-0.16-.95-0.31-1.9-0.47-2.85-1.19-2.983-2.29-4.749-2.38-9.024,2.27-1.314,1.79-1.472,5.7-1.425,1.3,1.058,6.72.079,7.6,1.425v0.95h0.48c0.15,0.95.31,1.9,0.47,2.85h0.48v1.424h0.47V564.8h0.48v1.425h0.47v1.425h0.48v1.425h0.47V570.5h0.48c0.15,0.95.31,1.9,0.47,2.85h0.48v1.425h0.47v0.95h0.48c0.15,0.95.31,1.9,0.47,2.85h0.48V580h0.47v1.425h0.48v1.425h0.47v1.425h0.48V585.7h0.47l0.48,2.849h0.47v1.425h0.48V591.4h0.47v1.425h0.48v1.425A75.959,75.959,0,0,1,1123.17,607.073Zm73.15-33.724-0.48,1.425h-0.47v0.95c-0.32.158-.64,0.317-0.95,0.475l-0.48,1.9h-0.47c-0.32.95-.64,1.9-0.95,2.85h-0.48v1.425h-0.47V583.8h-0.48v1.9h-0.47v1.9h-0.48v3.324h-0.47V599c0.42,1.332,1.53,2.33,1.9,3.8a3.864,3.864,0,0,1,1.9.95v0.475l2.37,0.475v0.475h11.4v0.475h8.55v0.475h4.75l8.55,0.475v0.475h3.33q3.315,1.187,6.65,2.375c0.15,0.316.31,0.633,0.47,0.95h0.95v0.475a3.9,3.9,0,0,0,1.9.95,4.052,4.052,0,0,0,.95,1.9h0.48v0.949h0.47l0.48,1.9h0.47v1.9h0.48c0.52,1.791-.62,5.965-0.95,7.125v3.8h-0.48v2.85h-0.47v2.375h-0.48V637h-0.47l-0.48,3.8h-0.47v1.9h-0.48v1.425h-0.47v1.425h-0.48v1.425h-0.47V648.4c-4.57,10.518-10.68,16.04-21.85,19.949-4.93,1.726-13.55.95-19.95,0.95-5.41,0-15.16.876-19.48-.475v-0.475h-1.9V667.87h-1.42V667.4h-1.43V666.92l-1.9-.475V665.97h-1.42l-0.48-.95h-0.95q-1.89-1.423-3.8-2.849v-0.95c-0.31-.159-0.63-0.317-0.95-0.475-0.65-1.075-.48-2.493-0.95-3.8h-0.47v-3.325h-0.48l0.48-7.125h0.47v-2.375c0.9-2.923,1.27-6.789,2.38-9.5,2.58-1.143,7-.974,10.92-0.95,0.84,1.575.98,2.074,0.95,4.75-1.32,1.436-.34,3.956-0.95,6.174h-0.47v8.075h0.47l0.48,1.9,1.42,0.475,0.48,0.95h0.95v0.475c1.11,0.158,2.22.316,3.32,0.475v0.475h13.78V657.9h7.6v-0.475h6.65l8.55-1.9v-0.475h0.95c0.16-.317.31-0.633,0.47-0.95h0.95l0.48-.95,2.85-2.375v-0.95c0.31-.158.63-0.317,0.95-0.475V648.4c0.31-.158.63-0.317,0.95-0.475v-0.95h0.47v-0.95h0.48V644.6h0.47v-0.95h0.48v-1.425h0.47V640.8h0.48v-1.425h0.47c0.48-3.007.95-6.016,1.43-9.024,0.78-4.57-.22-9.592-3.33-10.45-0.95-1.032-.97-0.428-2.37-0.95v-0.475h-5.23l-7.6-.475h-4.75v-0.475h-5.22v-0.475h-4.75v-0.475h-4.28V616.1l-6.17-.475v-0.475l-2.85-.475V614.2h-0.95v-0.474h-1.43c-0.15-.317-0.31-0.634-0.47-0.95-0.63-.159-1.27-0.317-1.9-0.475v-0.475a5.358,5.358,0,0,0-2.38-1.425c-0.15-.475-0.31-0.95-0.47-1.425h-0.48v-0.95h-0.47l-0.48-3.8h-0.47c-0.64-2.23.03-8.421,0.47-9.975l0.48-6.174h0.47v-1.425h0.48v-1.425h0.47V583.8h0.48v-1.425h0.47l0.48-2.85h0.47v-0.95h0.48v-1.425h0.47V576.2h0.48v-1.425h0.47l0.48-1.9h0.47v-0.95c0.32-.158.64-0.317,0.95-0.475V570.5c0.32-.158.64-0.316,0.95-0.475v-0.95c0.87-1.23,1.79-.786,2.38-2.85h0.95c1.51-2.678,4.36-3.742,7.12-5.224v-0.475l2.85-.95V559.1h1.43v-0.475h0.95V558.15l2.85-.475V557.2h1.9v-0.475h23.27c4.52,0,10.52-.809,14.25.475v0.475h1.43v0.475h0.95v0.475l2.85,0.95c0.15,0.316.31,0.633,0.47,0.95h0.95l2.85,3.324c0.48,0.317.95,0.634,1.43,0.95,3.7,5.264,2.2,13.417,0,19-0.83,2.092-.19,2.972-1.9,4.275v0.474h-9.03c-0.54-.54,0-0.189-0.95-0.474a12.638,12.638,0,0,1-.47-4.275h0.47v-2.85c1.2-4.291.38-10.006-3.32-10.925v-0.475h-1.43v-0.475l-5.7-.475c-3.59-1-18.27-1.027-21.85,0h-3.32v0.475h-1.9v0.475h-1.9v0.475h-0.95V570.5c-0.79.159-1.59,0.317-2.38,0.475-0.16.317-.31,0.634-0.47,0.95h-0.95V572.4A3.9,3.9,0,0,1,1196.32,573.349Zm149.62-15.674c0.17,0.928.93,1.99,0.47,3.325h-0.47v0.95h-0.48v1.424h-0.47V564.8a8.316,8.316,0,0,1-2.85,3.8l-0.48.95h-29.92c-0.48.633-.95,1.267-1.43,1.9h-0.47c-0.48,2.217-.95,4.434-1.43,6.65-1.19,3.482-2.13,7.915-3.32,11.4l-0.48,3.8c-0.98,2.864-1.87,6.635-2.85,9.5v1.9c-4.13,12.058-5.86,25.929-9.97,38l-0.48,3.8c-1.61,4.706-2.66,10.493-4.27,15.2v1.9h-0.48v1.424h-0.47v1.425c-0.32.159-.63,0.317-0.95,0.475-0.87,1.236.51,0.875-1.43,1.425-1.29,1.195-7.96.31-9.49,0l-0.48-1.9h-0.47c-0.71-2.068,2.28-10.231,2.85-11.874,0.15-1.267.31-2.533,0.47-3.8,0.96-2.769,1.9-6.255,2.85-9.025v-1.9h0.47v-1.9h0.48v-1.9h0.47v-1.9c3.07-8.466,4.56-18.6,7.6-27.074q0.96-4.749,1.9-9.5c1.14-3.315,2.18-7.549,3.33-10.924,0.16-1.267.32-2.534,0.47-3.8h0.48c0.32-1.742.63-3.484,0.95-5.225,0.81-2.365,1.78-4.418,1.9-7.6-2.41-.883-6.78-0.475-9.98-0.475h-20.89a5.9,5.9,0,0,0-.95-0.95v-0.95h-0.48v-2.375h0.48v-1.425h0.47v-1.424h0.48v-1.9h0.47V559.1h0.48c0.15-.475.31-0.95,0.47-1.425h0.48c0.15-.317.31-0.634,0.47-0.95h75.05A2.615,2.615,0,0,0,1345.94,557.675Zm183.82,15.674h-0.95c-0.8.95-1.59,1.9-2.38,2.85h-0.47v0.95c-0.32.158-.64,0.317-0.95,0.475l-0.48,1.9c-0.32.158-.63,0.317-0.95,0.475v0.95c-0.32.158-.63,0.316-0.95,0.475v0.95c-0.32.158-.63,0.316-0.95,0.475-0.16.633-.32,1.266-0.47,1.9-0.32.158-.64,0.316-0.95,0.475v0.95c-0.32.158-.64,0.316-0.95,0.475v0.95c-0.32.158-.64,0.316-0.95,0.475v0.949h-0.48v0.95c-0.32.159-.63,0.317-0.95,0.475v0.95c-0.32.159-.63,0.317-0.95,0.475-0.16.634-.32,1.267-0.47,1.9-0.32.159-.64,0.317-0.95,0.475v0.95c-0.32.159-.64,0.317-0.95,0.475v0.95c-0.32.158-.64,0.317-0.95,0.475l-0.48,1.9c-0.32.158-.63,0.317-0.95,0.475v0.95c-0.32.158-.63,0.317-0.95,0.475v0.95c-0.32.158-.63,0.317-0.95,0.475v0.95h-0.47v0.95c-0.32.158-.64,0.317-0.95,0.475v0.95c-0.32.158-.64,0.316-0.95,0.475l-0.48,1.9h-0.47l-0.48,1.425c-0.32.158-.63,0.316-0.95,0.475v0.95c-0.32.158-.63,0.316-0.95,0.475-0.16.633-.32,1.266-0.47,1.9-0.32.158-.64,0.316-0.95,0.475v0.949c-0.32.159-.64,0.317-0.95,0.475l-0.48,1.425h-0.47l-0.48,1.9h-0.47l-0.48,1.425c-0.32.159-.63,0.317-0.95,0.475-0.16.633-.32,1.267-0.47,1.9-0.32.158-.64,0.317-0.95,0.475v0.95c-0.32.158-.64,0.317-0.95,0.475v0.95c-0.32.158-.64,0.317-0.95,0.475l-0.48,1.9c-0.32.158-.63,0.317-0.95,0.475v0.95c-0.32.158-.63,0.317-0.95,0.475v0.95c-0.32.158-.63,0.317-0.95,0.475v0.95h-0.47v0.95c-0.32.158-.64,0.316-0.95,0.475v0.95c-0.32.158-.64,0.316-0.95,0.475l-0.48,1.9c-0.31.158-.63,0.316-0.95,0.475v0.95c-0.31.158-.63,0.316-0.95,0.475v0.949c-0.31.159-.63,0.317-0.95,0.475-0.16.634-.31,1.267-0.47,1.9-0.32.159-.64,0.317-0.95,0.475v0.95c-0.32.159-.64,0.317-0.95,0.475v0.95c-0.32.159-.64,0.317-0.95,0.475v0.95h-0.48v0.95c-0.31.159-.63,0.317-0.95,0.475v0.95c-0.31.158-.63,0.317-0.95,0.475-0.16.633-.31,1.267-0.47,1.9-0.32.158-.64,0.317-0.95,0.475v0.95c-0.32.158-.64,0.317-0.95,0.475l-0.48,1.425h-0.47l-0.48,1.9c-0.31.158-.63,0.317-0.95,0.475v0.95c-0.31.158-.63,0.316-0.95,0.475v0.95c-0.31.158-.63,0.316-0.95,0.475-0.16.633-.31,1.266-0.47,1.9-0.32.158-.64,0.316-0.95,0.475l-0.48,2.375h-0.47v0.949h-0.48v0.95c-1.11.95-2.21,1.9-3.32,2.85-4.08.122-8.87,0.546-10.45-1.9h-0.48V665.5h-0.47l-0.48-6.649c-1.19-4.074-1.18-9.681-2.37-13.775v-3.325c-1.51-5.156-1.37-11.958-2.85-17.1v-3.8c-1.15-3.968-1.23-9.328-2.38-13.3v-3.8c-0.84-2.9-1.06-7.072-1.9-9.975v-3.8h-0.47v-3.324h-0.48v-3.325h-0.47V580h-0.48v-2.85h-0.47l-0.48-2.375h-1.42c-0.33,1.511-.69.911-0.95,1.425v1.425h-0.48v1.425h-0.47v1.9h-0.48v1.9h-0.47c-0.32,1.9-.63,3.8-0.95,5.7-2.05,5.935-3.19,13.062-5.23,19v1.9h-0.47v1.9h-0.48v1.9h-0.47v1.9c-3.3,9.611-4.79,20.781-8.08,30.4-0.15,1.267-.31,2.534-0.47,3.8-1.41,4.1-2.39,9.2-3.8,13.3v1.9a7.176,7.176,0,0,1-2.38,3.324c-0.15.317-.31,0.634-0.47,0.95h-8.55c-0.54-.54,0-0.189-0.95-0.475a9.9,9.9,0,0,1-.48-3.8c0.96-1.107.42-2.256,0.95-3.8h0.48v-1.9c1.41-4.1,2.4-9.2,3.8-13.3,0.16-1.266.32-2.533,0.47-3.8,1.2-3.482,2.14-7.914,3.33-11.4,0.16-1.267.32-2.534,0.47-3.8,3.72-10.836,5.33-23.352,9.03-34.2,0.63-3.166,1.27-6.333,1.9-9.5h0.47l0.48-3.8c1.61-4.706,2.67-10.491,4.27-15.2,0.9-2.642.04-5.837,2.85-6.649,0.96-.808,2.82-0.011,4.75,0h13.78c0.47,0.633.95,1.266,1.42,1.9h0.48v5.224c1.27,1.516.29,4.866,0.95,7.125h0.47v3.8h0.48v3.325h0.47v3.8h0.48v3.8h0.47V589.5h0.48v3.8h0.47v3.8h0.48v3.325h0.47v3.8h0.48v3.8c2.22,7.648,1.59,17.518,3.8,25.174V637c1.06,3.667,1.01,8.556,2.37,11.874h0.95a4.353,4.353,0,0,1,.95-0.95v-0.95c0.32-.158.64-0.316,0.95-0.475l0.48-1.9c0.31-.158.63-0.316,0.95-0.475v-0.95c0.31-.158.63-0.316,0.95-0.475v-0.95c0.31-.158.63-0.316,0.95-0.475,0.16-.633.31-1.266,0.47-1.9h0.48c0.16-.474.31-0.95,0.47-1.424,0.32-.159.64-0.317,0.95-0.475v-0.95c0.32-.159.64-0.317,0.95-0.475V635.1h0.48v-0.95c0.31-.159.63-0.317,0.95-0.475v-0.95c0.31-.159.63-0.317,0.95-0.475,0.16-.633.31-1.267,0.47-1.9,0.32-.158.64-0.317,0.95-0.475v-0.95c0.32-.158.64-0.317,0.95-0.475V627.5c0.32-.158.64-0.317,0.95-0.475l0.48-1.9c0.31-.158.63-0.317,0.95-0.475V623.7c0.31-.158.63-0.317,0.95-0.475v-0.95c0.31-.158.63-0.317,0.95-0.475v-0.95h0.47V619.9c0.32-.158.64-0.316,0.95-0.475v-0.95c0.32-.158.64-0.316,0.95-0.475l0.48-1.9c0.31-.158.63-0.316,0.95-0.475v-0.95c0.31-.158.63-0.316,0.95-0.475,0.15-.474.31-0.95,0.47-1.424h0.48c0.15-.634.31-1.267,0.47-1.9,0.32-.159.63-0.317,0.95-0.475v-0.95c0.32-.159.63-0.317,0.95-0.475v-0.95c0.32-.159.63-0.317,0.95-0.475V606.6h0.48v-0.95c0.31-.158.63-0.317,0.95-0.475v-0.95c0.31-.158.63-0.317,0.95-0.475,0.15-.633.31-1.267,0.47-1.9,0.32-.158.63-0.317,0.95-0.475v-0.95c0.32-.158.63-0.317,0.95-0.475V599c0.32-.158.63-0.317,0.95-0.475l0.48-1.9c0.31-.158.63-0.316,0.95-0.475V595.2c0.31-.158.63-0.316,0.95-0.475v-0.95c0.31-.158.63-0.316,0.95-0.475v-0.95h0.47V591.4c0.32-.158.63-0.316,0.95-0.475v-0.95c0.32-.158.63-0.316,0.95-0.475l0.48-1.9h0.47l0.48-1.425c0.31-.159.63-0.317,0.95-0.475v-0.95c0.31-.159.63-0.317,0.95-0.475,0.15-.634.31-1.267,0.47-1.9,0.32-.159.63-0.317,0.95-0.475v-0.95c0.32-.159.63-0.317,0.95-0.475l0.48-1.425h0.47l0.48-1.9h0.47l0.48-1.425c0.31-.158.63-0.317,0.95-0.475,0.15-.633.31-1.267,0.47-1.9,0.32-.158.63-0.317,0.95-0.475v-0.95c0.32-.158.63-0.317,0.95-0.475V570.5c0.32-.158.63-0.316,0.95-0.475l0.48-1.9c0.31-.158.63-0.316,0.95-0.475V566.7c0.31-.158.63-0.316,0.95-0.475v-0.95c0.31-.158.63-0.316,0.95-0.475,0.15-.633.31-1.266,0.47-1.9h0.48c0.15-.474.31-0.95,0.47-1.424,0.32-.159.63-0.317,0.95-0.475v-0.95l3.33-2.85h13.29c1.88,0,4.54-.329,5.7.475v0.475c1.08,0.952.85,0.381,0.95,2.375h-0.47l-0.48,2.374h-0.47v1.9h-0.48v1.9h-0.47v1.9c-1.62,4.7-2.67,10.493-4.28,15.2-0.15,1.266-.31,2.533-0.47,3.8h-0.48v1.424h-0.47v1.9h-0.48v1.9h-0.47v1.9h-0.48c-0.15,1.267-.31,2.534-0.47,3.8h-0.48c-0.15,1.267-.31,2.533-0.47,3.8-4.51,13.141-6.47,28.241-10.92,41.323l-0.48,3.8c-1.4,4.1-2.4,9.2-3.8,13.3v1.9h-0.47v1.9h-0.48v1.424h-0.47v0.95h-0.48v0.95h-0.47l-0.48.95h-0.95V669.3a1.119,1.119,0,0,1-.95-0.475h-6.65v-0.475c-1.21-.611-0.6.123-1.42-0.95h-0.48v-2.849h0.48c0.15-1.109.31-2.217,0.47-3.325h0.48v-1.9h0.47v-1.9c1.38-4.01,2.44-8.848,3.8-12.825l0.48-3.8c3.05-8.9,4.56-19.159,7.6-28.023v-1.9h0.47v-1.9h0.48v-1.9h0.47v-1.9h0.48q0.945-4.749,1.9-9.5c0.72-2.116,1.64-4.973,2.37-7.125l0.48-3.8C1529.05,581.23,1530.42,577.394,1529.76,573.349Zm86.92-2.375a4.171,4.171,0,0,1-1.9-.95v-0.475h-1.43v-0.475h-1.42V568.6h-8.08v-0.475h-6.17c-5.13,0-10.71-.22-14.73.95h-2.85l-5.22,1.9c-0.48.633-.95,1.267-1.43,1.9h-0.95c-0.15.317-.31,0.633-0.47,0.95h-0.48v0.95c-0.47.317-.95,0.633-1.42,0.95-1.49,2.145-1.83,4.44-2.85,7.125-1,2.627-4.49,13.84-1.9,16.624,0.62,2.143,1.72,2.247,3.32,3.325l0.48,0.95h0.95v0.475l3.8,0.475c5.5,1.673,13.92-.145,19.47,1.425h5.7V606.6h3.8c2.69,0.8,6.48,1.393,9.03,2.375h1.42v0.475h0.95l0.48,0.95h0.95c0.16,0.316.31,0.633,0.47,0.95h0.95l0.48,0.95h0.47v0.95c0.32,0.158.63,0.316,0.95,0.475v0.949c0.32,0.159.63,0.317,0.95,0.475v1.425c0.76,1.85,2.43,6.567,1.43,9.975q-2.61,9.5-5.23,19h-0.47l-0.48,2.375h-0.47l-0.48,1.9h-0.47c-0.48,1.425-.95,2.85-1.43,4.275-0.31.158-.63,0.317-0.95,0.475-0.16.633-.31,1.267-0.47,1.9-0.32.158-.64,0.316-0.95,0.475v0.95c-0.48.316-.95,0.633-1.43,0.95v0.95l-2.85,2.375c-0.16.316-.31,0.633-0.47,0.95h-0.95c-0.32.474-.64,0.95-0.95,1.425h-0.95v0.474h-0.95V665.5h-1.43v0.475h-1.42v0.475h-1.9v0.475h-1.43V667.4h-1.42v0.475h-1.9v0.475h-1.9v0.475h-2.85V669.3h-16.15c-13.7,0-25.3.012-30.88-8.074v-0.95c-0.31-.159-0.63-0.317-0.95-0.475-0.65-1.076-.48-2.49-0.95-3.8h-0.47v-5.7h0.47v-4.275h0.48v-2.85h0.47V640.8h0.48v-1.425h0.47v-1.424h0.48V637a10.664,10.664,0,0,1,2.37-2.85l0.48-.95h8.55c0.81,1.395,1.37,1.36,1.42,3.8h-0.47l-0.48,2.849h-0.47v1.9h-0.48V652.2h0.48v1.425h0.47l0.48,1.425,1.42,0.475V656h1.43v0.475l7.12,0.475v0.475h6.18c6.21,1.725,21.29.078,25.65-1.9v-0.475h0.95c0.16-.317.31-0.633,0.47-0.95,0.64-.158,1.27-0.317,1.9-0.475,0.48-.633.95-1.267,1.43-1.9,0.31-.158.63-0.317,0.95-0.475V650.3c0.31-.158.63-0.317,0.95-0.475v-0.95h0.47c0.32-.95.64-1.9,0.95-2.85h0.48V644.6h0.47v-1.425h0.48v-1.425h0.47v-1.425h0.48V638.9h0.47l0.48-3.325h0.47v-1.9c0.55-1.681,1.84-7.16.95-9.975h-0.47l-0.48-2.375c-0.47-.316-0.95-0.633-1.42-0.95V619.9h-0.95v-0.475q-3.81-.713-7.6-1.425h-5.23c-2.79-.8-7.59.342-10.45-0.475v-0.475h-5.22v-0.475h-4.28V616.1h-3.8v-0.475h-2.85v-0.475h-2.37v-0.475h-1.43V614.2h-0.95v-0.474l-2.85-.95c-0.31-.475-0.63-0.95-0.95-1.425h-0.95q-1.65-2.376-3.32-4.75v-1.425h-0.48v-6.65l0.48-5.7q1.665-5.935,3.32-11.874h0.48v-1.425h0.47v-0.95h0.48v-1.425h0.47l0.48-1.9h0.47l0.48-2.375c0.32-.158.63-0.317,0.95-0.475,0.32-.95.63-1.9,0.95-2.85,0.47-.316.95-0.633,1.42-0.95v-0.95c0.64-.475,1.27-0.95,1.9-1.425l0.48-.95h0.95c0.47-.633.95-1.266,1.42-1.9h0.95l0.48-.949,2.85-.95V561h0.95v-0.475l2.85-.95V559.1c6.65-2.9,17.08-2.375,26.6-2.375h16.62V557.2h1.43v0.475l2.85,0.95V559.1h0.95v0.475h0.95v0.475h0.95c0.31,0.475.63,0.95,0.95,1.425h0.95c0.47,0.633.95,1.266,1.42,1.9h0.48v0.95c0.31,0.159.63,0.317,0.95,0.475v0.95h0.47l0.48,1.9h0.47v4.275h0.48l-0.48,9.975h-0.47v0.95h-0.48v1.425c-0.32.158-.63,0.316-0.95,0.475v0.95q-1.665,1.424-3.32,2.849a42.312,42.312,0,0,1-7.6-.474q-0.24-.712-0.48-1.425c-2.23-2.558,1.26-9.875,0-13.3h-0.47V572.4h-0.48C1616.99,571.924,1616.84,571.449,1616.68,570.974ZM1069.5,588.548c-0.33-1.83-1.66-4.088-.95-6.649h0.47l0.48-7.125h-0.48c-0.16-.792-0.31-1.583-0.47-2.375-1.27-.748-2.39-2.285-3.8-2.85h-1.9v-0.475h-1.9V568.6h-4.28v-0.475h-7.6c-6.91,0-13.45.173-18.52,1.9h-1.9V570.5h-0.95v0.475h-1.43c-0.15.317-.31,0.634-0.47,0.95h-0.95c-0.32.475-.63,0.95-0.95,1.425l-2.37,1.9v0.95c-0.32.158-.64,0.317-0.95,0.475v0.95h-0.48c-0.16.633-.32,1.267-0.47,1.9h-0.48c-0.16.95-.32,1.9-0.47,2.85h-0.48v1.9h-0.47l-0.48,6.649h-0.47v8.55c0.43,1.333,1.51,2.33,1.9,3.8,1.67,0.4,3.14,1.856,4.74,2.375h13.78c9.56,0,18.64.821,25.65,3.325h1.9v0.475l2.37,0.475,0.48,0.95h0.95c0.16,0.475.31,0.95,0.47,1.425,0.32,0.158.64,0.316,0.95,0.475l0.48,1.9h0.47c0.71,1.633,1.75,11.466.95,14.25q-0.945,5.7-1.9,11.4-2.13,5.224-4.27,10.45c-0.32.158-.64,0.317-0.95,0.475-0.32.95-.63,1.9-0.95,2.85-0.32.158-.63,0.317-0.95,0.475v0.95h-0.48c-0.15.475-.31,0.95-0.47,1.425-0.32.158-.63,0.316-0.95,0.475v0.95l-2.85,2.375c-0.48.633-.95,1.266-1.43,1.9h-0.95c-0.15.316-.31,0.633-0.47,0.95h-0.95l-0.48.95h-0.95v0.474c-0.63.159-1.26,0.317-1.9,0.475v0.475h-1.42v0.475h-0.95v0.475h-1.43V667.4h-1.42v0.475h-1.9v0.475h-1.9v0.475h-20.42c-9.18,0-18.61.718-24.229-2.85l-0.475-.95h-0.95l-1.425-1.9H993.5v-0.475l-1.425-.95q-0.237-.951-0.475-1.9c-3.155-5.952-2.541-11.1-.475-17.575v-2.375c1.212-3.913.787-6.208,6.175-6.174,1.207-1.138,5.309-.278,6.649,0l0.48,1.425h0.47c-0.16,1.583-.32,3.166-0.47,4.749-0.6,1.919-2.41,8.279-1.43,11.4,0.33,1.054,1.15,2,1.43,3.325l1.42,0.475,0.48,0.95h1.9c4.84,1.755,11.78,1.425,18.52,1.425,3.39,0,7.83.264,10.45-.475h4.27v-0.475h2.85V656h1.43v-0.475h1.42v-0.475h0.95v-0.475h0.95l0.48-1.425c0.63-.475,1.27-0.95,1.9-1.425v-0.95c0.32-.158.63-0.317,0.95-0.475,0.16-.633.32-1.267,0.47-1.9,0.32-.158.64-0.317,0.95-0.475,0.48-1.425.95-2.85,1.43-4.275h0.47V642.7h0.48v-1.425a33.865,33.865,0,0,0,2.37-12.824v-5.225h-0.47l-0.48-2.375c-0.47-.158-0.95-0.316-1.42-0.475V619.9h-0.95l-0.48-.95-3.8-.475V618h-12.35v-0.475h-8.07v-0.475h-5.23v-0.475h-3.79V616.1h-3.33v-0.475h-2.85v-0.475h-2.37v-0.475h-0.95V614.2c-0.8-.158-1.59-0.316-2.38-0.474-0.16-.317-0.32-0.634-0.47-0.95h-0.95l-0.48-.95-2.37-1.9-0.48-1.9h-0.47v-0.95h-0.48c-0.48-1.128-1.48-8.114-.95-9.975h0.48q0.225-3.324.47-6.65h0.48c0.15-1.424.31-2.85,0.47-4.274h0.48c0.15-1.109.31-2.217,0.47-3.325h0.48c0.15-.95.31-1.9,0.47-2.85h0.48c0.15-.792.31-1.584,0.47-2.375h0.48c0.15-.633.31-1.267,0.47-1.9h0.48v-0.95h0.47v-0.95h0.48v-0.95h0.47v-0.95h0.48v-0.95c0.31-.158.63-0.316,0.95-0.475v-0.95c0.47-.316.95-0.633,1.42-0.95v-0.95c0.79-.633,1.58-1.266,2.38-1.9V564.8c0.31-.158.63-0.316,0.95-0.475v-0.475h0.95c0.31-.474.63-0.95,0.95-1.424h0.95c0.15-.317.31-0.634,0.47-0.95h0.95V561l2.85-.95v-0.475l2.85-.475v-0.475h1.9c7.19-2.315,18.69-1.425,28.02-1.425,7.39,0,14.98-.485,19.48,2.375,0.16,0.316.31,0.633,0.47,0.95h0.95l0.48,0.95,2.37,1.9,0.48,1.9c0.31,0.159.63,0.317,0.95,0.475,2.21,4.178,1.38,11.632,0,16.15v2.375a7.143,7.143,0,0,1-2.38,3.325c-0.16.316-.31,0.633-0.47,0.949h-9.5Zm348.63-30.873c0.62,3.093-.47,4.919-1.42,7.6v2.375h-0.48a1.518,1.518,0,0,1-1.42.95c-1.69,1.666-9.82.95-13.3,0.95h-38v0.475h-0.95V570.5h-0.47v0.475h-0.48v0.95h-0.47v1.425h-0.48v1.9h-0.47v1.425h-0.48v1.9c-1.29,3.834-2.47,8.584-3.8,12.349-0.16,1.267-.31,2.534-0.47,3.8-1,2.949-2.3,5.609-2.38,9.5,0.32,0.158.64,0.317,0.95,0.475,1.7,1.666,9.82.95,13.3,0.95h25.18l9.5-.475v0.475h1.42c0.69,3.534.15,6.007-.47,9.024l-2.85,2.375h-48.93a4.055,4.055,0,0,1-.95.95v1.425h-0.47v0.95h-0.48c-0.16,1.267-.31,2.534-0.47,3.8h-0.48V625.6h-0.47q-0.48,2.611-.95,5.225h-0.48q-0.465,2.611-.95,5.225h-0.47l-0.48,3.8h-0.47v1.425h-0.48q-0.465,2.613-.95,5.225h-0.47l-0.48,3.8h-0.47a14.693,14.693,0,0,0-.95,5.225,6.373,6.373,0,0,1,1.9,1.425h50.82a3.575,3.575,0,0,0,.95,1.425l-2.85,9.5c-0.47.159-.95,0.317-1.42,0.475-0.87.756-3.15,0.474-4.75,0.475h-59.38c-0.16-.475-0.31-0.95-0.47-1.425h-0.48l0.48-4.274h0.47v-1.9c1.59-4.607,2.69-10.1,4.28-14.725,0.16-1.266.31-2.533,0.47-3.8,1.58-4.573,2.7-10.1,4.28-14.724,0.16-1.267.31-2.533,0.47-3.8,4.2-12.193,6.12-26.356,10.45-38.473q0.48-2.85.95-5.7h0.48c0.16-1.267.31-2.534,0.47-3.8,1.37-4.013,2.44-8.81,3.8-12.825v-1.9h0.48c0.16-.95.31-1.9,0.47-2.85,0.32-.159.64-0.317,0.95-0.475l0.48-.95h63.64C1417.73,557.741,1417.19,557.389,1418.13,557.675Z" transform="translate(-262 -493)"/>
  </g>
</svg>
