<svg xmlns="http://www.w3.org/2000/svg" width="198.496" height="39.956" viewBox="0 0 1391 280">
  <defs>
    <style>
      .cls-1 {
        fill-rule: evenodd;
      }
    </style>
  </defs>
  <g id="Artboard_1" data-name="Artboard 1">
    <path id="Color_Fill_2" data-name="Color Fill 2" class="cls-1" d="M562,538h4l7-8,2-1v-2l6-5v-2l7-6v-2l6-5v-2l3-2,3-4h1v-2l7-6v-2l3-2,2-3h1v-2l7-6v-2l7-6v-2l6-5v-2l7-6v-2l6-5v-2l3-2,3-4h1v-2c0.747-1.007,3.021-1.8,4-3,7.735-.076,16.784-0.153,23,1a19.168,19.168,0,0,1,1,7l-6,5v2l-7,6v2l-6,5v2l-6,5v2l-6,5v2l-7,6v2h-1l-2,3-3,2v2l-3,2-2,3h-1v2l-6,5c-11.779,16.265-26.224,29.709-38,46l-6,5v2l-7,6v2l-6,5q-2,10-4,20c-5.72,16.895-8.56,37.023-14,54v5h-1v4c-1.157,3.411-3.482,12.335-6,14-3.879,2.565-15.205,1.1-21,1-1.817-3.122-2.982-3.387-3-9,2.057-2.228.878-4.817,2-8h1v-3h1v-4h1v-4h1q0.5-3.5,1-7h1q0.5-4,1-8h1q0.5-3.5,1-7h1v-4h1v-4h1v-3h1v-4h1q1-5.5,2-11h1v-4h1q0.5-6.5,1-13h1v-8h-1v-7h-1q-0.5-3-1-6h-1v-2h-1v-3h-1v-3h-1v-3h-1v-3h-1v-3h-1v-3h-1v-3h-1v-3h-1v-3h-1q-0.5-3-1-6h-1v-3h-1v-3h-1v-3h-1v-3h-1v-3h-1q-0.5-3-1-6h-1v-2h-1q-1-4.5-2-9h-1v-3h-1v-3h-1v-3h-1v-3h-1v-3h-1v-3h-1v-3h-1v-3h-1v-3h-1q-0.5-3-1-6c-2.49-6.281-4.805-10-5-19,4.767-2.765,3.755-3.1,12-3,2.722,2.229,14.15.166,16,3v2h1q0.5,3,1,6h1v3h1v3h1v3h1v3h1v3h1v3h1q0.5,3,1,6h1v3h1v2h1q0.5,3,1,6h1v3h1v3h1v3h1v3h1v3h1q0.5,3,1,6h1v3h1v3h1v3h1v3C556.325,519.349,560.032,528.409,562,538Zm154-71q-0.5,1.5-1,3h-1v2l-2,1q-0.5,2-1,4h-1q-1,3-2,6h-1v3h-1v3h-1v4h-1v4h-1v7h-1v17c0.895,2.8,3.224,4.906,4,8a8.019,8.019,0,0,1,4,2v1l5,1v1h24v1h18v1h10l18,1v1h7l14,5q0.5,1,1,2h2v1a8.211,8.211,0,0,0,4,2,8.469,8.469,0,0,0,2,4h1v2h1q0.5,2,1,4h1v4h1c1.111,3.77-1.3,12.557-2,15v8h-1v6h-1v5h-1v5h-1q-0.5,4-1,8h-1v4h-1v3h-1v3h-1v3h-1v3c-9.624,22.145-22.475,33.77-46,42-10.383,3.633-28.53,2-42,2-11.387,0-31.913,1.845-41-1v-1h-4v-1h-3v-1h-3v-1l-4-1v-1h-3q-0.5-1-1-2h-2l-8-6v-2l-2-1c-1.388-2.262-1.024-5.248-2-8h-1v-7h-1q0.5-7.5,1-15h1v-5c1.892-6.155,2.659-14.293,5-20,5.434-2.406,14.733-2.051,23-2,1.756,3.316,2.058,4.368,2,10-2.8,3.025-.715,8.33-2,13h-1v17h1q0.5,2,1,4l3,1q0.5,1,1,2h2v1l7,1v1h29v1h16v-1h14l18-4v-1h2q0.5-1,1-2h2q0.5-1,1-2l6-5v-2l2-1v-2l2-1v-2h1v-2h1v-3h1v-2h1v-3h1v-3h1v-3h1l3-19c1.641-9.622-.446-20.194-7-22-2-2.174-2.038-.9-5-2v-1H769l-16-1H743v-1H732v-1H722v-1h-9v-1l-13-1v-1l-6-1v-1h-2v-1h-3q-0.5-1-1-2l-4-1v-1c-1.785-1.428-2.391-2.272-5-3q-0.5-1.5-1-3h-1v-2h-1q-0.5-4-1-8h-1c-1.342-4.694.066-17.729,1-21q0.5-6.5,1-13h1v-3h1v-3h1v-3h1v-3h1q0.5-3,1-6h1v-2h1v-3h1v-2h1v-3h1q0.5-2,1-4h1v-2l2-1v-2l2-1v-2c1.833-2.591,3.766-1.656,5-6h2c3.192-5.638,9.184-7.878,15-11v-1l6-2v-1h3v-1h2v-1l6-1v-1h4v-1h49c9.509,0,22.135-1.7,30,1v1h3v1h2v1l6,2q0.5,1,1,2h2l6,7,3,2c7.793,11.083,4.643,28.247,0,40-1.74,4.4-.392,6.257-4,9v1H815c-1.139-1.139,0-.4-2-1-0.842-2.232-1.029-5.438-1-9h1v-6c2.534-9.033.791-21.065-7-23v-1h-3v-1l-12-1c-7.557-2.109-38.475-2.163-46,0h-7v1h-4v1h-4v1h-2v1l-5,1q-0.5,1-1,2h-2v1A8.211,8.211,0,0,1,716,467Zm315-33c0.37,1.955,1.96,4.191,1,7h-1v2h-1v3h-1v3c-1.68,4.172-2.97,5.268-6,8-0.33.667-.67,1.333-1,2H959l-3,4h-1l-3,14c-2.521,7.332-4.493,16.663-7,24q-0.5,4-1,8c-2.07,6.028-3.94,13.968-6,20v4c-8.713,25.386-12.34,54.59-21,80q-0.5,4-1,8c-3.393,9.908-5.608,22.092-9,32v4h-1v3h-1v3l-2,1c-1.822,2.6,1.081,1.841-3,3-2.716,2.515-16.762.653-20,0q-0.5-2-1-4h-1c-1.483-4.355,4.808-21.541,6-25q0.5-4,1-8c2.012-5.83,3.994-13.168,6-19v-4h1v-4h1v-4h1v-4c6.446-17.822,9.588-39.162,16-57q2-10,4-20c2.389-6.979,4.576-15.894,7-23q0.5-4,1-8h1q1-5.5,2-11c1.7-4.979,3.74-9.3,4-16-5.076-1.86-14.279-1-21-1H864c-0.579-1.056-1.773-1.618-2-2v-2h-1v-5h1v-3h1v-3h1v-4h1v-3h1q0.5-1.5,1-3h1q0.5-1,1-2h158C1028.17,433.361,1028.82,433.528,1031,434Zm387,33h-2c-1.67,2-3.33,4-5,6h-1v2c-0.67.333-1.33,0.667-2,1-0.33,1.333-.67,2.667-1,4-0.67.333-1.33,0.667-2,1v2c-0.67.333-1.33,0.667-2,1v2c-0.67.333-1.33,0.667-2,1-0.33,1.333-.67,2.667-1,4-0.67.333-1.33,0.667-2,1v2c-0.67.333-1.33,0.667-2,1v2c-0.67.333-1.33,0.667-2,1v2h-1v2c-0.67.333-1.33,0.667-2,1v2c-0.67.333-1.33,0.667-2,1-0.33,1.333-.67,2.667-1,4-0.67.333-1.33,0.667-2,1v2c-0.67.333-1.33,0.667-2,1v2c-0.67.333-1.33,0.667-2,1-0.33,1.333-.67,2.667-1,4-0.67.333-1.33,0.667-2,1v2c-0.67.333-1.33,0.667-2,1v2c-0.67.333-1.33,0.667-2,1v2h-1v2c-0.67.333-1.33,0.667-2,1v2c-0.67.333-1.33,0.667-2,1-0.33,1.333-.67,2.667-1,4h-1c-0.33,1-.67,2-1,3-0.67.333-1.33,0.667-2,1v2c-0.67.333-1.33,0.667-2,1-0.33,1.333-.67,2.667-1,4-0.67.333-1.33,0.667-2,1v2c-0.67.333-1.33,0.667-2,1-0.33,1-.67,2-1,3h-1c-0.33,1.333-.67,2.667-1,4h-1c-0.33,1-.67,2-1,3-0.67.333-1.33,0.667-2,1-0.33,1.333-.67,2.667-1,4-0.67.333-1.33,0.667-2,1v2c-0.67.333-1.33,0.667-2,1v2c-0.67.333-1.33,0.667-2,1-0.33,1.333-.67,2.667-1,4-0.67.333-1.33,0.667-2,1v2c-0.67.333-1.33,0.667-2,1v2c-0.67.333-1.33,0.667-2,1v2h-1v2c-0.67.333-1.33,0.667-2,1v2c-0.67.333-1.33,0.667-2,1-0.33,1.333-.67,2.667-1,4-0.67.333-1.33,0.667-2,1v2c-0.67.333-1.33,0.667-2,1v2c-0.67.333-1.33,0.667-2,1-0.33,1.333-.67,2.667-1,4-0.67.333-1.33,0.667-2,1v2c-0.67.333-1.33,0.667-2,1v2c-0.67.333-1.33,0.667-2,1v2h-1v2c-0.67.333-1.33,0.667-2,1v2c-0.67.333-1.33,0.667-2,1-0.33,1.333-.67,2.667-1,4-0.67.333-1.33,0.667-2,1v2c-0.67.333-1.33,0.667-2,1-0.33,1-.67,2-1,3h-1c-0.33,1.333-.67,2.667-1,4-0.67.333-1.33,0.667-2,1v2c-0.67.333-1.33,0.667-2,1v2c-0.67.333-1.33,0.667-2,1-0.33,1.333-.67,2.667-1,4-0.67.333-1.33,0.667-2,1-0.33,1.667-.67,3.333-1,5h-1v2h-1v2q-3.495,3-7,6c-8.58.255-18.68,1.149-22-4h-1v-3h-1q-0.495-7-1-14c-2.51-8.576-2.5-20.382-5-29v-7c-3.18-10.857-2.88-25.176-6-36v-8c-2.43-8.354-2.59-19.639-5-28v-8c-1.77-6.106-2.24-14.889-4-21v-8h-1v-7h-1v-7h-1v-7h-1v-6h-1c-0.33-1.666-.67-3.334-1-5h-3c-0.68,3.182-1.45,1.917-2,3v3h-1v3h-1v4h-1v4h-1q-1.005,6-2,12c-4.31,12.494-6.71,27.5-11,40v4h-1v4h-1v4h-1v4c-6.95,20.234-10.08,43.749-17,64-0.33,2.666-.67,5.334-1,8-2.96,8.634-5.04,19.369-8,28v4c-1.26,3.427-2.55,4.763-5,7-0.33.667-.67,1.333-1,2h-18c-1.14-1.139,0-.4-2-1-0.87-2.316-1.02-4.407-1-8,2.01-2.33.88-4.748,2-8h1v-4c2.96-8.63,5.05-19.364,8-28,0.33-2.666.67-5.334,1-8,2.52-7.332,4.5-16.662,7-24,0.33-2.666.67-5.334,1-8,7.83-22.814,11.22-49.165,19-72q1.995-10,4-20h1c0.33-2.666.67-5.334,1-8,3.39-9.908,5.63-22.086,9-32,1.89-5.563.08-12.291,6-14,2.02-1.7,5.92-.023,10,0h29l3,4h1v11c2.68,3.19.62,10.243,2,15h1v8h1v7h1v8h1v8h1v7h1v8h1v8h1v7h1v8h1v8c4.67,16.1,3.36,36.882,8,53v8c2.23,7.721,2.14,18.013,5,25h2c0.66-1.294,1.57-1.36,2-2v-2c0.67-.333,1.33-0.667,2-1,0.33-1.333.67-2.667,1-4,0.67-.333,1.33-0.667,2-1v-2c0.67-.333,1.33-0.667,2-1v-2c0.67-.333,1.33-0.667,2-1,0.33-1.333.67-2.667,1-4h1c0.33-1,.67-2,1-3,0.67-.333,1.33-0.667,2-1v-2c0.67-.333,1.33-0.667,2-1v-2h1v-2c0.67-.333,1.33-0.667,2-1v-2c0.67-.333,1.33-0.667,2-1,0.33-1.333.67-2.667,1-4,0.67-.333,1.33-0.667,2-1v-2c0.67-.333,1.33-0.667,2-1v-2c0.67-.333,1.33-0.667,2-1,0.33-1.333.67-2.667,1-4,0.67-.333,1.33-0.667,2-1v-2c0.67-.333,1.33-0.667,2-1v-2c0.67-.333,1.33-0.667,2-1v-2h1v-2c0.67-.333,1.33-0.667,2-1v-2c0.67-.333,1.33-0.667,2-1,0.33-1.333.67-2.667,1-4,0.67-.333,1.33-0.667,2-1v-2c0.67-.333,1.33-0.667,2-1,0.33-1,.67-2,1-3h1c0.33-1.333.67-2.667,1-4,0.67-.333,1.33-0.667,2-1v-2c0.67-.333,1.33-0.667,2-1v-2c0.67-.333,1.33-0.667,2-1v-2h1v-2c0.67-.333,1.33-0.667,2-1v-2c0.67-.333,1.33-0.667,2-1,0.33-1.333.67-2.667,1-4,0.67-.333,1.33-0.667,2-1v-2c0.67-.333,1.33-0.667,2-1v-2c0.67-.333,1.33-0.667,2-1,0.33-1.333.67-2.667,1-4,0.67-.333,1.33-0.667,2-1v-2c0.67-.333,1.33-0.667,2-1v-2c0.67-.333,1.33-0.667,2-1v-2h1v-2c0.67-.333,1.33-0.667,2-1v-2c0.67-.333,1.33-0.667,2-1,0.33-1.333.67-2.667,1-4h1c0.33-1,.67-2,1-3,0.67-.333,1.33-0.667,2-1v-2c0.67-.333,1.33-0.667,2-1,0.33-1.333.67-2.667,1-4,0.67-.333,1.33-0.667,2-1v-2c0.67-.333,1.33-0.667,2-1,0.33-1,.67-2,1-3h1c0.33-1.333.67-2.667,1-4h1c0.33-1,.67-2,1-3,0.67-.333,1.33-0.667,2-1,0.33-1.333.67-2.667,1-4,0.67-.333,1.33-0.667,2-1v-2c0.67-.333,1.33-0.667,2-1v-2c0.67-.333,1.33-0.667,2-1,0.33-1.333.67-2.667,1-4,0.67-.333,1.33-0.667,2-1v-2c0.67-.333,1.33-0.667,2-1v-2c0.67-.333,1.33-0.667,2-1,0.33-1.333.67-2.667,1-4h1c0.33-1,.67-2,1-3,0.67-.333,1.33-0.667,2-1v-2q3.495-3,7-6h28c3.94,0,9.55-.693,12,1v1c2.26,2,1.78.8,2,5h-1c-0.33,1.666-.67,3.334-1,5h-1v4h-1v4h-1v4c-3.4,9.9-5.61,22.09-9,32-0.33,2.666-.67,5.334-1,8h-1v3h-1v4h-1v4h-1v4h-1c-0.33,2.666-.67,5.334-1,8h-1c-0.33,2.666-.67,5.334-1,8-9.49,27.667-13.62,59.458-23,87-0.33,2.666-.67,5.334-1,8-2.95,8.634-5.06,19.361-8,28v4h-1v4h-1v3h-1v2h-1v2h-1c-0.33.667-.67,1.333-1,2h-2v1c-1.69-.237-2-1-2-1h-14v-1c-2.56-1.287-1.26.258-3-2h-1v-6h1c0.33-2.333.67-4.667,1-7h1v-4h1v-4c2.9-8.441,5.13-18.628,8-27,0.33-2.666.67-5.334,1-8,6.44-18.744,9.61-40.338,16-59v-4h1v-4h1v-4h1v-4h1q1.995-10,4-20c1.52-4.456,3.46-10.47,5-15,0.33-2.666.67-5.334,1-8C1416.51,483.592,1419.4,475.515,1418,467Zm183-5a8.873,8.873,0,0,1-4-2v-1h-3v-1h-3v-1h-17v-1h-13c-10.8,0-22.54-.465-31,2h-6q-5.505,2-11,4l-3,4h-2c-0.33.667-.67,1.333-1,2h-1v2l-3,2c-3.13,4.516-3.86,9.348-6,15-2.1,5.532-9.45,29.139-4,35,1.3,4.512,3.62,4.731,7,7,0.33,0.667.67,1.333,1,2h2v1l8,1c11.58,3.522,29.3-.306,41,3h12v1h8c5.66,1.676,13.65,2.934,19,5h3v1h2c0.33,0.667.67,1.333,1,2h2c0.33,0.667.67,1.333,1,2h2c0.33,0.667.67,1.333,1,2h1v2c0.67,0.333,1.33.667,2,1v2c0.67,0.333,1.33.667,2,1v3c1.6,3.894,5.11,13.825,3,21q-5.505,20-11,40h-1c-0.33,1.667-.67,3.333-1,5h-1c-0.33,1.333-.67,2.667-1,4h-1l-3,9c-0.67.333-1.33,0.667-2,1-0.33,1.333-.67,2.667-1,4-0.67.333-1.33,0.667-2,1v2l-3,2v2l-6,5c-0.33.667-.67,1.333-1,2h-2c-0.67,1-1.33,2-2,3h-2v1h-2v1h-3v1h-3v1h-4v1h-3v1h-3v1h-4v1h-4v1h-6v1h-34c-28.83,0-53.25.025-65-17v-2c-0.67-.333-1.33-0.667-2-1-1.39-2.265-1.03-5.241-2-8h-1V629h1v-9h1v-6h1v-5h1v-3h1v-3h1v-2a22.584,22.584,0,0,1,5-6c0.33-.667.67-1.333,1-2h18c1.71,2.937,2.89,2.863,3,8h-1c-0.33,2-.67,4-1,6h-1v4h-1v22h1v3h1c0.33,1,.67,2,1,3l3,1v1h3v1l15,1v1h13c13.07,3.633,44.82.165,54-4v-1h2c0.33-.667.67-1.333,1-2l4-1,3-4c0.67-.333,1.33-0.667,2-1v-2c0.67-.333,1.33-0.667,2-1v-2h1c0.67-2,1.33-4,2-6h1v-3h1v-3h1v-3h1v-3h1v-3h1c0.33-2.333.67-4.667,1-7h1v-4c1.15-3.538,3.87-15.074,2-21h-1c-0.33-1.667-.67-3.333-1-5l-3-2v-1h-2v-1l-16-3h-11c-5.89-1.684-15.99.719-22-1v-1h-11v-1h-9v-1h-8v-1h-6v-1h-5v-1h-3v-1h-2v-1l-6-2c-0.67-1-1.33-2-2-3h-2q-3.495-5-7-10v-3h-1V520q0.495-6,1-12,3.495-12.5,7-25h1v-3h1v-2h1v-3h1c0.33-1.333.67-2.667,1-4h1c0.33-1.666.67-3.334,1-5,0.67-.333,1.33-0.667,2-1,0.67-2,1.33-4,2-6l3-2v-2c1.33-1,2.67-2,4-3,0.33-.667.67-1.333,1-2h2l3-4h2c0.33-.667.67-1.333,1-2l6-2v-1h2v-1l6-2v-1c14-6.1,35.95-5,56-5h35v1h3v1l6,2v1h2v1h2v1h2c0.67,1,1.33,2,2,3h2l3,4h1v2c0.67,0.333,1.33.667,2,1v2h1c0.33,1.333.67,2.667,1,4h1v9h1q-0.495,10.5-1,21h-1v2h-1v3c-0.67.333-1.33,0.667-2,1v2q-3.495,3-7,6a89.129,89.129,0,0,1-16-1c-0.33-1-.67-2-1-3-4.7-5.384,2.65-20.79,0-28h-1v-2h-1C1601.67,464,1601.33,463,1601,462ZM449,499c-0.7-3.853-3.488-8.608-2-14h1q0.5-7.5,1-15h-1l-1-5c-2.666-1.576-5.026-4.812-8-6h-4v-1h-4v-1h-9v-1H406c-14.548,0-28.333.364-39,4h-4v1h-2v1h-3l-1,2h-2l-2,3-5,4v2l-2,1v2h-1l-1,4h-1q-0.5,3-1,6h-1v4h-1q-0.5,7-1,14h-1v18c0.911,2.807,3.195,4.906,4,8,3.527,0.839,6.627,3.908,10,5h29c20.127,0,39.252,1.728,54,7h4v1l5,1,1,2h2l1,3,2,1,1,4h1c1.492,3.437,3.677,24.139,2,30l-4,24-9,22-2,1-2,6-2,1v2h-1l-1,3-2,1v2l-6,5-3,4h-2l-1,2h-2l-1,2h-2v1l-4,1v1h-3v1h-2v1h-3v1h-3v1h-4v1h-4v1H348c-19.319,0-39.173,1.511-51-6l-1-2h-2l-3-4h-2v-1l-3-2-1-4c-6.644-12.53-5.35-23.371-1-37v-5c2.552-8.238,1.657-13.072,13-13,2.541-2.394,11.18-.585,14,0l1,3h1q-0.5,5-1,10c-1.249,4.039-5.067,17.429-3,24,0.7,2.22,2.424,4.2,3,7l3,1,1,2h4c10.208,3.7,24.812,3,39,3,7.141,0,16.479.556,22-1h9v-1h6v-1h3v-1h3v-1h2v-1h2l1-3,4-3v-2l2-1,1-4,2-1,3-9h1v-2h1v-3a71.215,71.215,0,0,0,5-27V572h-1q-0.5-2.5-1-5l-3-1v-1h-2l-1-2-8-1v-1H384v-1H367v-1H356v-1h-8v-1h-7v-1h-6v-1h-5v-1h-2v-1l-5-1-1-2h-2l-1-2-5-4-1-4h-1v-2h-1c-1.02-2.374-3.12-17.083-2-21h1q0.5-7,1-14h1q0.5-4.5,1-9h1q0.5-3.5,1-7h1q0.5-3,1-6h1l1-5h1l1-4h1v-2h1v-2h1v-2h1v-2h1v-2l2-1v-2l3-2v-2l5-4v-2l2-1v-1h2l2-3h2l1-2h2v-1l6-2v-1l6-1v-1h4c15.136-4.874,39.345-3,59-3,15.559,0,31.522-1.02,41,5l1,2h2l1,2,5,4,1,4,2,1c4.649,8.8,2.906,24.49,0,34v5c-1.172,3.385-2.617,4.82-5,7l-1,2H449Zm734-65c1.29,6.513-1,10.356-3,16v5h-1c-1.26,1.593-.54,1.366-3,2-3.56,3.506-20.68,2-28,2h-80v1h-2v1h-1v1h-1v2h-1v3h-1v4h-1v3h-1v4c-2.73,8.073-5.2,18.073-8,26-0.33,2.666-.67,5.334-1,8-2.09,6.207-4.84,11.808-5,20,0.67,0.333,1.33.667,2,1,3.58,3.507,20.67,2,28,2h53l20-1v1h3c1.45,7.442.32,12.648-1,19l-6,5H1042c-0.52,1.05-1.87,1.751-2,2v3h-1v2h-1c-0.33,2.666-.67,5.334-1,8h-1v3h-1q-1.005,5.5-2,11h-1q-1.005,5.5-2,11h-1c-0.33,2.666-.67,5.334-1,8h-1v3h-1q-1.005,5.5-2,11h-1c-0.33,2.666-.67,5.334-1,8h-1a30.961,30.961,0,0,0-2,11,13.311,13.311,0,0,1,4,3h107a7.531,7.531,0,0,0,2,3l-6,20-3,1c-1.83,1.591-6.63,1-10,1H988q-0.5-1.5-1-3h-1q0.5-4.5,1-9h1v-4c3.349-9.7,5.659-21.258,9-31q0.5-4,1-8c3.32-9.629,5.67-21.271,9-31,0.33-2.666.67-5.334,1-8,8.85-25.67,12.88-55.488,22-81q1.005-6,2-12h1c0.33-2.666.67-5.334,1-8,2.88-8.449,5.13-18.548,8-27v-4h1c0.33-2,.67-4,1-6,0.67-.333,1.33-0.667,2-1,0.33-.667.67-1.333,1-2h134C1182.14,434.139,1181,433.4,1183,434Z" transform="translate(-262 -409)"/>
  </g>
</svg>
